<?xml version="1.0" encoding="utf-8"?>
<svg viewBox="-245.304 -140.129 1241.379 772.515" xmlns="http://www.w3.org/2000/svg">
  <rect x="-467.677" y="-313.223" width="1777.075" height="1166.885" style="stroke: rgb(0, 0, 0); fill: rgb(16, 22, 47);"/>
  <g id="a" transform="matrix(1, 0, 0, 1, -246.895376, -152.435031)">
    <rect class="t" x="747.93" y="375.29" width="377.07" height="35.07" style="fill: rgb(35, 31, 32);"/>
    <rect class="t" x="826.61" y="53.87" width="298.39" height="35.07" style="fill: rgb(35, 31, 32);"/>
    <rect class="t" x="75" y="535.59" width="151.05" height="35.07" style="fill: rgb(35, 31, 32);"/>
    <rect class="t" x="75" y="214.6" width="784.27" height="35.07" style="fill: rgb(35, 31, 32);"/>
    <g>
      <path class="f" d="M759.82,384.55v-1.66h1.22v1.64c2.37,.17,4.47,1.62,4.79,4.79h-3.02c-.17-1.24-.78-2.1-1.76-2.35v3.86l.61,.15c2.02,.5,4.49,1.49,4.49,4.58,0,3.28-2.6,4.68-5.1,4.72v2.08h-1.22v-2.16c-2.75-.4-4.51-2.35-4.81-5.23h3.04c.17,1.32,.76,2.33,1.76,2.75v-4.16l-.63-.17c-2.04-.52-3.93-1.97-3.93-4.47,0-2.73,2.2-4.12,4.56-4.37Zm0,5.94v-3.55c-.86,.19-1.45,.84-1.45,1.68s.44,1.49,1.45,1.87Zm1.22,3.4v4.01c1.11-.06,1.97-.76,1.97-1.85s-.67-1.76-1.97-2.16Z" style="fill: rgb(255, 255, 255);"/>
      <path class="s" d="M785.54,390.13c.52-1.05,1.57-1.68,2.88-1.68,2.58,0,4.6,2.06,4.6,5.92s-2.02,5.9-4.6,5.9c-1.3,0-2.35-.63-2.88-1.68l-.02,1.41h-2.98v-15.22h3v5.35Zm2.2,7.92c1.43,0,2.25-1.41,2.25-3.67s-.82-3.7-2.25-3.7-2.33,1.32-2.33,3.7,.88,3.67,2.33,3.67Z" style="fill: rgb(27, 163, 74);"/>
      <path class="s" d="M796.46,397.79l5.86-6.8h-5.42v-2.29h8.86v2.2l-5.9,6.82h6.05v2.27h-9.45v-2.21Z" style="fill: rgb(27, 163, 74);"/>
      <path class="s" d="M810.05,400v-2.27h3.28v-6.76h-3.28v-2.27h6.3v9.03h3.3v2.27h-9.6Zm6.3-15.22v2.79h-3.02v-2.79h3.02Z" style="fill: rgb(27, 163, 74);"/>
      <path class="s" d="M826.26,390.13c.55-1.05,1.57-1.68,2.9-1.68,2.58,0,4.58,2.06,4.58,5.92s-2,5.9-4.58,5.9c-1.32,0-2.35-.63-2.9-1.68v5.08h-3.02v-14.97h3.02v1.43Zm2.23,7.92c1.41,0,2.23-1.41,2.23-3.67s-.82-3.7-2.23-3.7-2.33,1.32-2.33,3.7,.88,3.67,2.33,3.67Z" style="fill: rgb(27, 163, 74);"/>
      <path class="s" d="M847.01,388.93c0,2.58-1.89,4.7-4.72,7.14l-1.66,1.45h6.3v2.48h-10.25v-2.46l3.17-2.77c2.41-2.08,4.14-3.97,4.14-5.77,0-1.49-1.01-2.1-1.91-2.1-1.34,0-2.35,1.13-2.29,3.38h-2.94c-.1-3.78,2.23-5.71,5.27-5.71,2.77,0,4.89,1.6,4.89,4.37Z" style="fill: rgb(27, 163, 74);"/>
      <path class="m" d="M864.34,400v-2.27h3.28v-10.71h-3.28v-2.25h6.3v12.96h3.28v2.27h-9.57Z" style="fill: rgb(36, 192, 235);"/>
      <path class="m" d="M882.63,400.27c-2.77,0-5.4-1.6-5.4-5.92s2.62-5.9,5.4-5.9,5.4,1.57,5.4,5.9-2.65,5.92-5.4,5.92Zm0-9.59c-1.45,0-2.37,1.07-2.37,3.67s.92,3.7,2.37,3.7,2.37-1.09,2.37-3.7-.92-3.67-2.37-3.67Z" style="fill: rgb(36, 192, 235);"/>
      <path class="m" d="M894.32,388.7v1.32c.65-1.01,1.68-1.57,3-1.57,2.6,0,3.67,1.74,3.67,4.45v7.1h-3.02v-6.59c0-1.2-.13-2.62-1.66-2.62-1.7,0-2,1.51-2,3.23v5.98h-3.02v-11.3h3.02Z" style="fill: rgb(36, 192, 235);"/>
      <path class="m" d="M911.88,388.7h3v10.14c0,3.72-1.97,5.08-5.23,5.08-2.27,0-4.39-.9-4.75-3.63h2.77c.19,.97,.8,1.47,1.99,1.47,1.51,0,2.21-1.01,2.21-2.39v-1.22c-.55,1.03-1.6,1.66-2.9,1.66-2.58,0-4.58-2.02-4.58-5.67s1.99-5.69,4.58-5.69c1.3,0,2.35,.63,2.9,1.68v-1.43Zm-2.23,1.97c-1.43,0-2.23,1.43-2.23,3.46s.8,3.46,2.23,3.46,2.33-1.3,2.33-3.46-.88-3.46-2.33-3.46Z" style="fill: rgb(36, 192, 235);"/>
      <path class="m" d="M919.61,395.88v-2.92h7.43v2.92h-7.43Z" style="fill: rgb(36, 192, 235);"/>
      <path class="m" d="M939.01,384.78h3v15.22h-2.98l-.02-1.41c-.55,1.05-1.6,1.68-2.9,1.68-2.58,0-4.58-2.04-4.58-5.9s1.99-5.92,4.58-5.92c1.3,0,2.35,.63,2.9,1.68v-5.35Zm-2.23,5.9c-1.43,0-2.23,1.43-2.23,3.7s.8,3.67,2.23,3.67,2.33-1.3,2.33-3.67-.88-3.7-2.33-3.7Z" style="fill: rgb(36, 192, 235);"/>
      <path class="m" d="M948.02,395.13c.11,2.08,1.24,3,2.5,3s1.91-.61,2.14-1.66h2.88c-.32,1.91-2.02,3.8-5.06,3.8-3.53,0-5.35-2.35-5.35-5.82s1.95-6,5.31-6,5.4,2.52,5.29,6.68h-7.71Zm0-1.91h4.83c-.06-2.06-1.26-2.6-2.46-2.6-.97,0-2.21,.69-2.37,2.6Z" style="fill: rgb(36, 192, 235);"/>
      <path class="m" d="M962.57,400v-7.56c0-1.32-.08-1.7-.61-1.7-.61,0-.76,.59-.76,2.37v6.89h-2.94v-11.3h2.94v.86c.38-.65,1.13-1.11,1.95-1.11,.88,0,1.53,.44,1.89,1.26,.48-.88,1.41-1.26,2.1-1.26,1.49,0,2.54,.84,2.54,3.55v8h-2.94v-7.56c0-1.32-.08-1.7-.61-1.7-.61,0-.76,.59-.76,2.37v6.89h-2.81Z" style="fill: rgb(36, 192, 235);"/>
      <path class="m" d="M977.59,400.27c-2.77,0-5.4-1.6-5.4-5.92s2.62-5.9,5.4-5.9,5.4,1.57,5.4,5.9-2.65,5.92-5.4,5.92Zm0-9.59c-1.45,0-2.37,1.07-2.37,3.67s.92,3.7,2.37,3.7,2.37-1.09,2.37-3.7-.92-3.67-2.37-3.67Z" style="fill: rgb(36, 192, 235);"/>
      <path class="m" d="M987.44,395.88v-2.92h7.43v2.92h-7.43Z" style="fill: rgb(36, 192, 235);"/>
      <path class="m" d="M1004.8,396.41l2.69-7.71h2.98l-4.26,11.3h-2.92l-4.32-11.3h3.13l2.71,7.71Z" style="fill: rgb(36, 192, 235);"/>
      <path class="m" d="M1013.54,400v-2.27h3.28v-6.76h-3.28v-2.27h6.3v9.03h3.3v2.27h-9.59Zm6.3-15.22v2.79h-3.02v-2.79h3.02Z" style="fill: rgb(36, 192, 235);"/>
      <path class="m" d="M1033.97,384.78h3v15.22h-2.98l-.02-1.41c-.55,1.05-1.6,1.68-2.9,1.68-2.58,0-4.58-2.04-4.58-5.9s2-5.92,4.58-5.92c1.3,0,2.35,.63,2.9,1.68v-5.35Zm-2.23,5.9c-1.43,0-2.23,1.43-2.23,3.7s.8,3.67,2.23,3.67,2.33-1.3,2.33-3.67-.88-3.7-2.33-3.7Z" style="fill: rgb(36, 192, 235);"/>
      <path class="m" d="M1042.98,395.13c.11,2.08,1.24,3,2.5,3s1.91-.61,2.14-1.66h2.88c-.32,1.91-2.02,3.8-5.06,3.8-3.53,0-5.35-2.35-5.35-5.82s1.95-6,5.31-6,5.4,2.52,5.29,6.68h-7.71Zm0-1.91h4.83c-.06-2.06-1.26-2.6-2.46-2.6-.97,0-2.21,.69-2.37,2.6Z" style="fill: rgb(36, 192, 235);"/>
      <path class="m" d="M1058.98,400.27c-2.77,0-5.4-1.6-5.4-5.92s2.62-5.9,5.4-5.9,5.4,1.57,5.4,5.9-2.65,5.92-5.4,5.92Zm0-9.59c-1.45,0-2.37,1.07-2.37,3.67s.92,3.7,2.37,3.7,2.37-1.09,2.37-3.7-.92-3.67-2.37-3.67Z" style="fill: rgb(36, 192, 235);"/>
      <path class="m" d="M1070.6,400v-3.74h3.91v3.74h-3.91Z" style="fill: rgb(36, 192, 235);"/>
      <path class="m" d="M1084.67,400v-7.56c0-1.32-.08-1.7-.61-1.7-.61,0-.76,.59-.76,2.37v6.89h-2.94v-11.3h2.94v.86c.38-.65,1.13-1.11,1.95-1.11,.88,0,1.53,.44,1.89,1.26,.48-.88,1.41-1.26,2.1-1.26,1.49,0,2.54,.84,2.54,3.55v8h-2.94v-7.56c0-1.32-.08-1.7-.61-1.7-.61,0-.76,.59-.76,2.37v6.89h-2.81Z" style="fill: rgb(36, 192, 235);"/>
      <path class="m" d="M1097.58,390.13c.55-1.05,1.58-1.68,2.9-1.68,2.58,0,4.58,2.06,4.58,5.92s-1.99,5.9-4.58,5.9c-1.32,0-2.35-.63-2.9-1.68v5.08h-3.02v-14.97h3.02v1.43Zm2.23,7.92c1.41,0,2.22-1.41,2.22-3.67s-.82-3.7-2.22-3.7-2.33,1.32-2.33,3.7,.88,3.67,2.33,3.67Z" style="fill: rgb(36, 192, 235);"/>
      <path class="m" d="M1118.85,396.91h-2.06v3.09h-3.02v-3.09h-6.68v-2.58l6.89-9.55h2.81v9.41h2.06v2.73Zm-8.84-2.73h3.76v-5.33l-3.76,5.33Z" style="fill: rgb(36, 192, 235);"/>
    </g>
    <g>
      <path class="f" d="M87.3,544.85v-1.66h1.22v1.64c2.37,.17,4.47,1.62,4.79,4.79h-3.02c-.17-1.24-.78-2.1-1.76-2.35v3.86l.61,.15c2.02,.5,4.49,1.49,4.49,4.58,0,3.28-2.6,4.68-5.1,4.72v2.08h-1.22v-2.16c-2.75-.4-4.51-2.35-4.81-5.23h3.04c.17,1.32,.76,2.33,1.76,2.75v-4.16l-.63-.17c-2.04-.53-3.93-1.97-3.93-4.47,0-2.73,2.2-4.12,4.56-4.37Zm0,5.94v-3.55c-.86,.19-1.45,.84-1.45,1.68s.44,1.49,1.45,1.87Zm1.22,3.4v4.01c1.11-.06,1.97-.76,1.97-1.85s-.67-1.76-1.97-2.16Z" style="fill: rgb(255, 255, 255);"/>
      <path class="s" d="M113.69,560.31v-7.56c0-1.32-.08-1.7-.61-1.7-.61,0-.76,.59-.76,2.37v6.89h-2.94v-11.3h2.94v.86c.38-.65,1.13-1.11,1.95-1.11,.88,0,1.53,.44,1.89,1.26,.48-.88,1.41-1.26,2.1-1.26,1.49,0,2.54,.84,2.54,3.55v8h-2.94v-7.56c0-1.32-.08-1.7-.61-1.7-.61,0-.76,.59-.76,2.37v6.89h-2.81Z" style="fill: rgb(27, 163, 74);"/>
      <path class="s" d="M127.17,560.58c-1.93,0-3.82-1.24-3.82-3.3,0-2.88,3.3-3.46,7.1-3.95v-.25c0-1.74-.76-2.33-1.99-2.33s-2.02,.59-2.1,1.83h-2.71c.21-2.23,2.04-3.86,4.91-3.86s4.79,1.13,4.79,4.96c0,.36-.04,1.87-.04,2.9,0,3.11,.13,3.4,.23,3.74h-2.75l-.02-1.45c-.8,1.2-1.95,1.72-3.59,1.72Zm3.36-5.4c-2.92,.29-4.2,.63-4.2,1.97,0,.84,.57,1.36,1.66,1.36,1.89,0,2.54-1.22,2.54-3.04v-.29Z" style="fill: rgb(27, 163, 74);"/>
      <path class="s" d="M140.4,549.01v1.32c.65-1.01,1.68-1.58,3-1.58,2.6,0,3.67,1.74,3.67,4.45v7.1h-3.02v-6.59c0-1.2-.13-2.62-1.66-2.62-1.7,0-1.99,1.51-1.99,3.23v5.98h-3.02v-11.3h3.02Z" style="fill: rgb(27, 163, 74);"/>
      <path class="m" d="M170.62,551.17l1.03,4.98,.8-7.14h2.94l-1.41,11.3h-3.28l-1.3-6.95-1.32,6.95h-3.28l-1.39-11.3h2.92l.8,7.14,1.05-4.98h2.44Z" style="fill: rgb(36, 192, 235);"/>
      <path class="m" d="M185.09,549.01h3v10.14c0,3.72-1.97,5.08-5.23,5.08-2.27,0-4.39-.9-4.75-3.63h2.77c.19,.97,.8,1.47,1.99,1.47,1.51,0,2.2-1.01,2.2-2.39v-1.22c-.55,1.03-1.6,1.66-2.9,1.66-2.58,0-4.58-2.02-4.58-5.67s1.99-5.69,4.58-5.69c1.3,0,2.35,.63,2.9,1.68v-1.43Zm-2.23,1.97c-1.43,0-2.23,1.43-2.23,3.46s.8,3.46,2.23,3.46,2.33-1.3,2.33-3.46-.88-3.46-2.33-3.46Z" style="fill: rgb(36, 192, 235);"/>
      <path class="m" d="M194.1,555.44c.1,2.08,1.24,3,2.5,3s1.91-.61,2.14-1.66h2.88c-.31,1.91-2.02,3.8-5.06,3.8-3.53,0-5.35-2.35-5.35-5.82s1.95-6,5.31-6,5.4,2.52,5.29,6.68h-7.71Zm0-1.91h4.83c-.06-2.06-1.26-2.6-2.46-2.6-.97,0-2.2,.69-2.37,2.6Z" style="fill: rgb(36, 192, 235);"/>
      <path class="m" d="M207.42,545.99h3.02v3.02h4.41v2.29h-4.41v5.46c0,1.07,.36,1.28,1.24,1.28h3.13v2.27h-4.24c-2.46,0-3.15-.82-3.15-3.07v-5.94h-3.28v-2.29h3.28v-3.02Z" style="fill: rgb(36, 192, 235);"/>
    </g>
  </g>
  <g id="b" transform="matrix(1, 0, 0, 1, -246.895376, -152.435031)">
    <g>
      <polygon class="i" points="385.99 401.76 368.58 401.76 368.58 382.18 385.99 401.76" style="fill: rgb(237, 131, 103);"/>
      <path class="i" d="M385.99,402.76h-17.41c-.55,0-1-.45-1-1v-19.58c0-.42,.26-.79,.64-.93s.83-.04,1.1,.27l17.41,19.58c.26,.29,.33,.71,.17,1.07-.16,.36-.52,.59-.91,.59Zm-16.41-2h14.18l-14.18-15.95v15.95Z" style="fill: rgb(237, 131, 103);"/>
    </g>
    <g>
      <polygon class="r" points="422.94 401.76 385.99 401.76 368.58 382.18 368.58 354.69 381.09 354.69 422.94 401.76" style="fill: rgb(243, 223, 214);"/>
      <path class="i" d="M422.94,402.76h-36.95c-.29,0-.56-.12-.75-.34l-17.41-19.58c-.16-.18-.25-.42-.25-.66v-27.49c0-.55,.45-1,1-1h12.51c.29,0,.56,.12,.75,.34l41.85,47.07c.26,.29,.33,.71,.16,1.07-.16,.36-.52,.59-.91,.59Zm-36.5-2h34.27l-40.07-45.07h-11.06v26.11l16.86,18.96Z" style="fill: rgb(237, 131, 103);"/>
    </g>
    <g>
      <polygon class="i" points="283.83 354.69 283.83 370.67 269.62 354.69 283.83 354.69" style="fill: rgb(237, 131, 103);"/>
      <path class="i" d="M283.83,371.67c-.28,0-.55-.12-.75-.34l-14.21-15.98c-.26-.29-.33-.71-.17-1.07,.16-.36,.52-.59,.91-.59h14.21c.55,0,1,.45,1,1v15.98c0,.42-.26,.79-.64,.93-.12,.04-.24,.07-.36,.07Zm-11.98-15.98l10.98,12.35v-12.35h-10.98Z" style="fill: rgb(237, 131, 103);"/>
    </g>
    <g>
      <polygon class="f" points="350.19 311.75 350.19 340.34 302.22 340.34 302.22 391.36 283.83 370.67 283.83 311.75 350.19 311.75" style="fill: rgb(255, 255, 255);"/>
      <path class="t" d="M302.22,392.36c-.28,0-.55-.12-.75-.34l-18.39-20.69c-.16-.18-.25-.42-.25-.66v-58.92c0-.55,.45-1,1-1h66.36c.55,0,1,.45,1,1v28.59c0,.55-.45,1-1,1h-46.97v50.02c0,.42-.26,.79-.64,.93-.12,.04-.24,.07-.36,.07Zm-17.39-22.07l16.39,18.44v-48.39c0-.55,.45-1,1-1h46.97v-26.59h-64.36v57.54Z" style="fill: rgb(35, 31, 32);"/>
    </g>
    <polygon class="g" points="870.67 445.44 870.67 559.77 915.3 567.8 959.92 559.77 959.92 445.44 915.3 453.47 870.67 445.44" style="fill: rgb(255, 255, 255); stroke: rgb(191, 185, 180); stroke-miterlimit: 10;"/>
    <g>
      <path class="p" d="M915.3,568.8c-.55,0-1-.45-1-1v-1.5c0-.55,.45-1,1-1s1,.45,1,1v1.5c0,.55-.45,1-1,1Z" style="fill: rgb(191, 185, 180);"/>
      <path class="p" d="M915.3,562.19c-.55,0-1-.45-1-1v-3.07c0-.55,.45-1,1-1s1,.45,1,1v3.07c0,.55-.45,1-1,1Zm0-8.18c-.55,0-1-.45-1-1v-3.07c0-.55,.45-1,1-1s1,.45,1,1v3.07c0,.55-.45,1-1,1Zm0-8.18c-.55,0-1-.45-1-1v-3.07c0-.55,.45-1,1-1s1,.45,1,1v3.07c0,.55-.45,1-1,1Zm0-8.18c-.55,0-1-.45-1-1v-3.07c0-.55,.45-1,1-1s1,.45,1,1v3.07c0,.55-.45,1-1,1Zm0-8.18c-.55,0-1-.45-1-1v-3.07c0-.55,.45-1,1-1s1,.45,1,1v3.07c0,.55-.45,1-1,1Zm0-8.18c-.55,0-1-.45-1-1v-3.07c0-.55,.45-1,1-1s1,.45,1,1v3.07c0,.55-.45,1-1,1Z" style="fill: rgb(191, 185, 180);"/>
      <path class="p" d="M915.3,513.14c-.55,0-1-.45-1-1v-1.5c0-.55,.45-1,1-1s1,.45,1,1v1.5c0,.55-.45,1-1,1Z" style="fill: rgb(191, 185, 180);"/>
    </g>
    <g>
      <line class="f" x1="870.67" y1="502.6" x2="915.3" y2="510.64" style="fill: rgb(255, 255, 255);"/>
      <g>
        <path class="p" d="M872.15,503.87c-.06,0-.12,0-.18-.02l-1.48-.27c-.54-.1-.91-.62-.81-1.16,.1-.54,.62-.91,1.16-.81l1.48,.27c.54,.1,.91,.62,.81,1.16-.09,.48-.51,.82-.98,.82Z" style="fill: rgb(191, 185, 180);"/>
        <path class="p" d="M909.19,510.54c-.06,0-.12,0-.18-.02l-2.78-.5c-.54-.1-.91-.62-.81-1.16,.1-.54,.62-.9,1.16-.81l2.78,.5c.54,.1,.91,.62,.81,1.16-.09,.48-.51,.82-.98,.82Zm-7.41-1.33c-.06,0-.12,0-.18-.02l-2.78-.5c-.54-.1-.91-.62-.81-1.16,.1-.54,.62-.9,1.16-.81l2.78,.5c.54,.1,.91,.62,.81,1.16-.09,.48-.51,.82-.98,.82Zm-7.41-1.33c-.06,0-.12,0-.18-.02l-2.78-.5c-.54-.1-.91-.62-.81-1.16,.1-.54,.62-.9,1.16-.81l2.78,.5c.54,.1,.91,.62,.81,1.16-.09,.48-.51,.82-.98,.82Zm-7.41-1.33c-.06,0-.12,0-.18-.02l-2.78-.5c-.54-.1-.91-.62-.81-1.16,.1-.54,.62-.91,1.16-.81l2.78,.5c.54,.1,.91,.62,.81,1.16-.09,.48-.51,.82-.98,.82Zm-7.41-1.33c-.06,0-.12,0-.18-.02l-2.78-.5c-.54-.1-.91-.62-.81-1.16,.1-.54,.62-.91,1.16-.81l2.78,.5c.54,.1,.91,.62,.81,1.16-.09,.48-.51,.82-.98,.82Z" style="fill: rgb(191, 185, 180);"/>
        <path class="p" d="M915.3,511.64c-.06,0-.12,0-.18-.02l-1.48-.27c-.54-.1-.91-.62-.81-1.16,.1-.54,.62-.91,1.16-.81l1.48,.27c.54,.1,.91,.62,.81,1.16-.09,.48-.51,.82-.98,.82Z" style="fill: rgb(191, 185, 180);"/>
      </g>
    </g>
    <g>
      <line class="f" x1="959.92" y1="502.6" x2="915.3" y2="510.64" style="fill: rgb(255, 255, 255);"/>
      <g>
        <path class="p" d="M958.44,503.87c-.47,0-.9-.34-.98-.82-.1-.54,.26-1.06,.81-1.16l1.48-.27c.54-.1,1.06,.26,1.16,.81,.1,.54-.26,1.06-.81,1.16l-1.48,.27c-.06,.01-.12,.02-.18,.02Z" style="fill: rgb(191, 185, 180);"/>
        <path class="p" d="M921.4,510.54c-.47,0-.9-.34-.98-.82-.1-.54,.26-1.06,.81-1.16l2.78-.5c.54-.1,1.06,.26,1.16,.81,.1,.54-.26,1.06-.81,1.16l-2.78,.5c-.06,.01-.12,.02-.18,.02Zm7.41-1.33c-.47,0-.9-.34-.98-.82-.1-.54,.26-1.06,.81-1.16l2.78-.5c.54-.1,1.06,.26,1.16,.81,.1,.54-.26,1.06-.81,1.16l-2.78,.5c-.06,.01-.12,.02-.18,.02Zm7.41-1.33c-.47,0-.9-.34-.98-.82-.1-.54,.26-1.06,.81-1.16l2.78-.5c.54-.1,1.06,.26,1.16,.81,.1,.54-.26,1.06-.81,1.16l-2.78,.5c-.06,.01-.12,.02-.18,.02Zm7.41-1.33c-.47,0-.9-.34-.98-.82-.1-.54,.26-1.06,.81-1.16l2.78-.5c.54-.1,1.06,.26,1.16,.81,.1,.54-.26,1.06-.81,1.16l-2.78,.5c-.06,.01-.12,.02-.18,.02Zm7.41-1.33c-.47,0-.9-.34-.98-.82-.1-.54,.26-1.06,.81-1.16l2.78-.5c.54-.1,1.06,.26,1.16,.81,.1,.54-.26,1.06-.81,1.16l-2.78,.5c-.06,.01-.12,.02-.18,.02Z" style="fill: rgb(191, 185, 180);"/>
        <path class="p" d="M915.3,511.64c-.47,0-.9-.34-.98-.82-.1-.54,.26-1.06,.81-1.16l1.48-.27c.54-.1,1.06,.26,1.16,.81,.1,.54-.26,1.06-.81,1.16l-1.48,.27c-.06,.01-.12,.02-.18,.02Z" style="fill: rgb(191, 185, 180);"/>
      </g>
    </g>
    <g>
      <path class="p" d="M915.3,511.64c-.55,0-1-.45-1-1v-1.5c0-.55,.45-1,1-1s1,.45,1,1v1.5c0,.55-.45,1-1,1Z" style="fill: rgb(191, 185, 180);"/>
      <path class="p" d="M915.3,505.03c-.55,0-1-.45-1-1v-3.07c0-.55,.45-1,1-1s1,.45,1,1v3.07c0,.55-.45,1-1,1Zm0-8.18c-.55,0-1-.45-1-1v-3.07c0-.55,.45-1,1-1s1,.45,1,1v3.07c0,.55-.45,1-1,1Zm0-8.18c-.55,0-1-.45-1-1v-3.07c0-.55,.45-1,1-1s1,.45,1,1v3.07c0,.55-.45,1-1,1Zm0-8.18c-.55,0-1-.45-1-1v-3.07c0-.55,.45-1,1-1s1,.45,1,1v3.07c0,.55-.45,1-1,1Zm0-8.18c-.55,0-1-.45-1-1v-3.07c0-.55,.45-1,1-1s1,.45,1,1v3.07c0,.55-.45,1-1,1Zm0-8.18c-.55,0-1-.45-1-1v-3.07c0-.55,.45-1,1-1s1,.45,1,1v3.07c0,.55-.45,1-1,1Z" style="fill: rgb(191, 185, 180);"/>
      <path class="p" d="M915.3,455.97c-.55,0-1-.45-1-1v-1.5c0-.55,.45-1,1-1s1,.45,1,1v1.5c0,.55-.45,1-1,1Z" style="fill: rgb(191, 185, 180);"/>
    </g>
    <path class="p" d="M960.9,445.35s0-.06,0-.09c0-.04-.03-.07-.04-.1-.02-.07-.04-.13-.07-.19-.03-.06-.06-.1-.1-.15-.04-.05-.09-.1-.14-.14-.05-.04-.1-.07-.15-.1-.06-.03-.12-.06-.18-.08-.06-.02-.13-.03-.19-.04-.04,0-.07-.02-.11-.02-.03,0-.06,.01-.09,.02-.03,0-.06,0-.09,0l-44.44,8-44.45-8s-.06,0-.09,0c-.03,0-.06-.02-.09-.02-.04,0-.07,.02-.11,.02-.07,0-.13,.02-.19,.04-.06,.02-.12,.05-.17,.08-.06,.03-.11,.06-.15,.1-.05,.04-.09,.09-.13,.14-.04,.05-.07,.1-.1,.16-.03,.06-.05,.12-.07,.19-.01,.04-.03,.07-.04,.1,0,.03,0,.06,0,.09,0,.03-.02,.06-.02,.09v114.33s.02,.07,.02,.11c0,.07,.02,.13,.04,.2,.02,.06,.05,.12,.08,.17,.03,.06,.06,.11,.11,.16,.04,.05,.09,.09,.14,.13,.05,.04,.1,.07,.15,.1,.06,.03,.12,.05,.19,.07,.04,.01,.07,.03,.1,.04l44.62,8.03c.06,.01,.12,.02,.17,.02h0c.06,0,.12,0,.17-.02l44.62-8.03s.07-.03,.1-.04c.07-.02,.13-.04,.19-.07,.06-.03,.11-.06,.15-.1,.05-.04,.1-.08,.14-.13,.04-.05,.07-.1,.11-.16,.03-.06,.06-.11,.08-.17,.02-.06,.03-.13,.04-.2,0-.04,.02-.07,.02-.11v-114.33s-.01-.06-.02-.09Zm-1.98,57.25v56.33l-43.62,7.85-43.62-7.85v-112.3l43.45,7.82c.06,.01,.12,.02,.17,.02h0c.06,0,.12,0,.17-.02l43.44-7.82v55.97Z" style="fill: rgb(191, 185, 180);"/>
    <path class="u" d="M1003.78,546.89c-.52,0-1.02-.27-1.3-.75-8.69-14.98-21.27-27.28-36.37-35.57-.73-.4-.99-1.31-.59-2.04,.4-.73,1.31-.99,2.04-.59,15.58,8.55,28.55,21.24,37.52,36.69,.42,.72,.17,1.63-.54,2.05-.24,.14-.5,.2-.75,.2Z" style="fill: rgb(232, 85, 48);"/>
    <polygon class="e" points="1055.46 582.69 1031.08 540.48 986.46 548.51 941.84 540.48 941.84 597.65 986.46 605.68 1031.08 597.65 1031.08 587.51 1055.46 582.69" style="fill: rgb(255, 255, 255); stroke: rgb(191, 185, 180); stroke-linejoin: round;"/>
    <g>
      <path class="p" d="M986.46,606.68c-.55,0-1-.45-1-1v-1.5c0-.55,.45-1,1-1s1,.45,1,1v1.5c0,.55-.45,1-1,1Z" style="fill: rgb(191, 185, 180);"/>
      <path class="p" d="M986.46,598.89c-.55,0-1-.45-1-1v-3.77c0-.55,.45-1,1-1s1,.45,1,1v3.77c0,.55-.45,1-1,1Z" style="fill: rgb(191, 185, 180);"/>
      <path class="p" d="M986.46,588.84c-.55,0-1-.45-1-1v-1.5c0-.55,.45-1,1-1s1,.45,1,1v1.5c0,.55-.45,1-1,1Z" style="fill: rgb(191, 185, 180);"/>
    </g>
    <g>
      <path class="p" d="M987.21,550.81c-.35,0-.68-.18-.87-.5l-.75-1.3c-.28-.48-.11-1.09,.37-1.37,.48-.28,1.09-.11,1.37,.37l.75,1.3c.28,.48,.11,1.09-.37,1.37-.16,.09-.33,.13-.5,.13Z" style="fill: rgb(191, 185, 180);"/>
      <path class="p" d="M1007.54,586.02c-.35,0-.68-.18-.87-.5l-1.52-2.64c-.28-.48-.11-1.09,.37-1.37,.48-.28,1.09-.11,1.37,.37l1.52,2.64c.28,.48,.11,1.09-.37,1.37-.16,.09-.33,.13-.5,.13Zm-4.07-7.04c-.35,0-.68-.18-.87-.5l-1.52-2.64c-.28-.48-.11-1.09,.37-1.37,.48-.28,1.09-.11,1.37,.37l1.52,2.64c.28,.48,.11,1.09-.37,1.37-.16,.09-.33,.13-.5,.13Zm-4.07-7.04c-.35,0-.68-.18-.87-.5l-1.52-2.64c-.28-.48-.11-1.09,.37-1.37,.48-.28,1.09-.11,1.37,.37l1.52,2.64c.28,.48,.11,1.09-.37,1.37-.16,.09-.33,.13-.5,.13Zm-4.07-7.04c-.35,0-.68-.18-.87-.5l-1.53-2.64c-.28-.48-.11-1.09,.37-1.37,.48-.28,1.09-.11,1.37,.37l1.53,2.64c.28,.48,.11,1.09-.37,1.37-.16,.09-.33,.13-.5,.13Zm-4.07-7.04c-.35,0-.68-.18-.87-.5l-1.52-2.64c-.28-.48-.11-1.09,.37-1.37,.48-.28,1.09-.11,1.37,.37l1.52,2.64c.28,.48,.11,1.09-.37,1.37-.16,.09-.33,.13-.5,.13Z" style="fill: rgb(191, 185, 180);"/>
      <path class="p" d="M1010.83,591.73c-.35,0-.68-.18-.87-.5l-.75-1.3c-.28-.48-.11-1.09,.37-1.37,.48-.28,1.09-.11,1.37,.37l.75,1.3c.28,.48,.11,1.09-.37,1.37-.16,.09-.33,.13-.5,.13Z" style="fill: rgb(191, 185, 180);"/>
    </g>
    <path class="p" d="M1056.34,583.11c.03-.06,.06-.11,.08-.18,.01-.05,0-.11,.01-.16,0-.08,.02-.15,0-.23,0,0,0-.02,0-.03-.01-.06-.04-.1-.06-.16-.02-.06-.03-.11-.06-.17l-24.37-42.21s-.01-.01-.02-.02c-.04-.06-.09-.11-.15-.17-.04-.04-.07-.09-.12-.12-.05-.03-.11-.05-.16-.08-.06-.03-.12-.07-.19-.08-.05-.01-.1,0-.15-.01-.08,0-.16-.02-.24,0,0,0-.02,0-.02,0l-44.44,8-44.45-8s-.06,0-.09,0c-.03,0-.06-.02-.09-.02-.02,0-.04,.01-.06,.01-.04,0-.08,0-.12,.01-.04,0-.08,.02-.12,.04-.05,.02-.1,.03-.14,.05-.02,0-.04,0-.06,.02-.01,0-.02,.02-.03,.03-.03,.02-.06,.05-.1,.08-.04,.04-.08,.07-.12,.11-.02,.03-.05,.05-.07,.08-.02,.03-.04,.07-.05,.1-.03,.05-.05,.09-.07,.14-.01,.04-.03,.07-.03,.11,0,.01-.01,.02-.02,.04,0,.03,0,.06,0,.09,0,.03-.02,.06-.02,.09v57.17s.02,.07,.02,.11c0,.07,.02,.13,.04,.2,.02,.06,.05,.12,.08,.17,.03,.06,.06,.11,.11,.16,.04,.05,.09,.09,.14,.13,.05,.04,.1,.07,.15,.1,.06,.03,.12,.05,.19,.07,.04,.01,.07,.03,.1,.04l44.62,8.03c.06,.01,.12,.02,.17,.02h0c.06,0,.12,0,.17-.02l44.62-8.03s.07-.03,.1-.04c.07-.02,.13-.04,.19-.07,.06-.03,.11-.06,.15-.1,.05-.04,.1-.08,.14-.13,.04-.05,.07-.1,.11-.16,.03-.06,.06-.11,.08-.17,.02-.06,.03-.13,.04-.2,0-.04,.02-.07,.02-.11v-9.73l23.55-4.24s.02,0,.03-.01c.1-.02,.2-.05,.3-.11,0,0,.01-.01,.02-.02,.06-.04,.11-.09,.17-.15,.04-.04,.09-.07,.12-.12,.04-.05,.05-.11,.08-.17Zm-45.51,6.6l-43.99-7.92-23.06-39.94,42.5,7.65c.06,.01,.12,.02,.17,.02h0c.06,0,.12,0,.17-.02l43.93-7.91,23.31,40.37-43.04,7.75Zm19.25,7.1l-43.62,7.85-43.62-7.85v-52.6l22.5,38.98s.02,.03,.03,.04c.02,.02,.03,.04,.05,.07,.06,.08,.13,.14,.2,.19,.02,.01,.04,.03,.06,.04,.1,.06,.21,.1,.32,.13,0,0,.02,0,.03,.01l44.62,8.03c.06,.01,.12,.02,.17,.02h0c.06,0,.12,0,.17-.02l19.07-3.43v8.53Z" style="fill: rgb(191, 185, 180);"/>
    <polygon class="e" points="946.02 630.59 946.02 687.75 990.64 695.79 990.64 638.62 946.02 630.59" style="fill: rgb(255, 255, 255); stroke: rgb(191, 185, 180); stroke-linejoin: round;"/>
    <polygon class="e" points="946.02 630.59 985.78 620.93 985.78 637.75 946.02 630.59" style="fill: rgb(255, 255, 255); stroke: rgb(191, 185, 180); stroke-linejoin: round;"/>
    <polygon class="e" points="990.64 638.62 1002.95 687.75 990.64 685.54 990.64 638.62" style="fill: rgb(255, 255, 255); stroke: rgb(191, 185, 180); stroke-linejoin: round;"/>
    <path class="p" d="M1003.93,687.93h0c.01-.07,0-.14,0-.2,0-.07,0-.14,0-.21h0l-12.3-49.12h0v-.02s-.03-.04-.04-.07c-.02-.06-.04-.11-.07-.17-.02-.04-.03-.07-.06-.11-.02-.02-.04-.04-.06-.06-.04-.04-.08-.08-.13-.12-.03-.03-.06-.06-.09-.08-.02-.01-.05-.02-.08-.03-.05-.03-.11-.05-.17-.06-.04-.01-.07-.03-.1-.04l-4.03-.73v-15.98s-.02-.08-.02-.12c0-.04,0-.08,0-.12,0-.03-.03-.05-.03-.07-.02-.07-.05-.13-.09-.19-.03-.05-.06-.1-.1-.15-.04-.05-.09-.09-.14-.13-.05-.04-.1-.08-.15-.1-.05-.03-.11-.05-.17-.06-.07-.02-.13-.04-.2-.04-.03,0-.05-.02-.08-.02-.04,0-.08,.02-.12,.02-.04,0-.08,0-.12,0l-39.75,9.65h-.02s-.05,.03-.07,.04c-.06,.02-.11,.05-.17,.08-.03,.02-.07,.03-.1,.05-.03,.02-.04,.04-.07,.06-.05,.04-.08,.08-.12,.13-.02,.03-.06,.05-.08,.09-.02,.03-.02,.05-.04,.08-.03,.05-.05,.11-.06,.17-.01,.04-.03,.06-.04,.1h0s0,.07,0,.1c0,.03-.02,.05-.02,.08v57.17s.02,.07,.02,.11c0,.07,.02,.13,.04,.2,.02,.06,.05,.12,.08,.17,.03,.06,.06,.11,.11,.16,.04,.05,.09,.09,.14,.13,.05,.04,.1,.07,.15,.1,.06,.03,.12,.05,.19,.07,.04,.01,.07,.03,.1,.04l44.62,8.03c.06,.01,.12,.02,.18,.02h0c.13,0,.25-.03,.36-.07,.04-.02,.07-.04,.11-.06,.07-.04,.13-.08,.19-.13,.04-.03,.06-.07,.09-.11,.05-.06,.09-.11,.12-.18,.02-.05,.04-.1,.05-.15,.01-.04,.04-.08,.04-.12,0-.03,0-.06,0-.09,0-.03,.02-.06,.02-.09v-9.05l11.13,2c.06,.01,.12,.02,.17,.02h0c.08,0,.16,0,.24-.03,.02,0,.03-.02,.04-.02,.08-.03,.16-.07,.23-.11,.03-.02,.07-.03,.1-.06,.09-.07,.17-.15,.23-.25,0,0,.01-.01,.01-.02,.06-.1,.1-.21,.13-.34Zm-53.08-57.49l33.93-8.24v14.35l-33.93-6.11Zm-3.84,56.47v-55.13l42.62,7.67v55.13l-42.62-7.67Zm44.62-40.19l9.96,39.77-9.96-1.79v-37.97Z" style="fill: rgb(191, 185, 180);"/>
    <g>
      <circle class="m" cx="973.63" cy="156.91" r="56.63" style="fill: rgb(36, 192, 235);"/>
      <path class="n" d="M973.74,214.55c-2.13,0-4.28-.12-6.43-.35-15.3-1.69-29.03-9.23-38.65-21.25-9.63-12.01-14-27.06-12.31-42.36,1.69-15.3,9.23-29.03,21.25-38.65,24.8-19.87,61.14-15.86,81.01,8.94,9.63,12.01,14,27.06,12.31,42.36-1.69,15.3-9.23,29.03-21.25,38.65-10.32,8.27-22.88,12.66-35.92,12.66Zm-.22-113.27c-12.59,0-24.71,4.24-34.68,12.22-11.6,9.29-18.88,22.54-20.51,37.31-1.63,14.77,2.59,29.29,11.88,40.89,9.29,11.6,22.54,18.88,37.31,20.51,14.77,1.63,29.29-2.59,40.89-11.88,23.94-19.18,27.81-54.26,8.63-78.2-9.29-11.6-22.54-18.88-37.31-20.51-2.08-.23-4.15-.34-6.21-.34Z" style="fill: rgb(22, 125, 192);"/>
    </g>
    <path class="f" d="M936.59,200.74c-.23,0-.46-.08-.65-.24-9.07-7.84,.38-33.14,21.52-57.58,9.97-11.53,20.97-20.97,30.98-26.6,10.3-5.79,18.44-6.86,22.9-3,.42,.36,.46,.99,.1,1.41-.36,.42-.99,.46-1.41,.1-3.72-3.22-11.23-2.04-20.61,3.23-9.81,5.52-20.62,14.81-30.44,26.16-19.72,22.81-29.67,47.88-21.73,54.76,.42,.36,.46,.99,.1,1.41-.2,.23-.48,.35-.76,.35Z" style="fill: rgb(255, 255, 255);"/>
    <path class="f" d="M995.98,190.25c-9.85,0-20.79-1.89-31.67-5.55-30.13-10.11-50.45-30.8-45.31-46.13,5.14-15.32,33.83-19.57,63.96-9.46h0c14.48,4.86,27.17,12.26,35.71,20.84,8.72,8.76,12.13,17.73,9.59,25.28-2.53,7.55-10.67,12.65-22.9,14.38-2.98,.42-6.12,.63-9.38,.63Zm-44.85-64.69c-15.48,0-27.25,4.78-30.23,13.66-4.79,14.28,14.97,33.83,44.05,43.59,14.2,4.76,28.45,6.48,40.14,4.84,11.45-1.61,19.01-6.24,21.29-13.03,2.28-6.79-.96-15.04-9.12-23.23-8.33-8.36-20.74-15.6-34.93-20.36h0c-11-3.69-21.78-5.46-31.2-5.46Z" style="fill: rgb(255, 255, 255);"/>
    <g>
      <path class="f" d="M841.22,63.13v-1.66h1.22v1.64c2.37,.17,4.47,1.62,4.79,4.79h-3.02c-.17-1.24-.78-2.1-1.76-2.35v3.86l.61,.15c2.02,.5,4.49,1.49,4.49,4.58,0,3.28-2.6,4.68-5.1,4.72v2.08h-1.22v-2.16c-2.75-.4-4.51-2.35-4.81-5.23h3.04c.17,1.32,.76,2.33,1.76,2.75v-4.16l-.63-.17c-2.04-.52-3.93-1.97-3.93-4.47,0-2.73,2.2-4.12,4.56-4.37Zm0,5.94v-3.55c-.86,.19-1.45,.84-1.45,1.68s.44,1.49,1.45,1.87Zm1.22,3.4v4.01c1.11-.06,1.97-.76,1.97-1.85s-.67-1.76-1.97-2.16Z" style="fill: rgb(255, 255, 255);"/>
      <path class="s" d="M874.04,71.36h-2.86c-.17-1.2-.74-2.1-2.08-2.1s-2.18,1.15-2.18,3.7,.84,3.67,2.18,3.67c.92,0,1.87-.46,2.14-2.18h2.9c-.4,3.07-2.81,4.41-5.08,4.41-3.3,0-5.17-2.48-5.17-5.9s1.91-5.92,5.23-5.92c2.2,0,4.58,1.32,4.91,4.33Z" style="fill: rgb(27, 163, 74);"/>
      <path class="s" d="M884.5,77.35c-.65,1.03-1.68,1.51-2.88,1.51-2.73,0-3.8-1.74-3.8-4.45v-7.12h3.02v6.61c0,1.2,.13,2.62,1.66,2.62,1.68,0,1.99-1.51,1.99-3.23v-6h3.02v11.3h-3.02v-1.24Z" style="fill: rgb(27, 163, 74);"/>
      <path class="s" d="M896.78,67.29v1.91c.46-.97,1.34-1.91,3.13-1.91h1.72v2.41h-2.16c-1.91,0-2.65,.9-2.65,3.11v3.51h4.09v2.27h-9.93v-2.27h2.81v-6.74h-2.81v-2.29h5.79Z" style="fill: rgb(27, 163, 74);"/>
      <path class="s" d="M905.04,78.59v-2.27h3.28v-10.71h-3.28v-2.25h6.3v12.95h3.28v2.27h-9.57Z" style="fill: rgb(27, 163, 74);"/>
      <path class="m" d="M941.87,71.36h-2.86c-.17-1.2-.73-2.1-2.08-2.1s-2.18,1.15-2.18,3.7,.84,3.67,2.18,3.67c.92,0,1.87-.46,2.14-2.18h2.9c-.4,3.07-2.81,4.41-5.08,4.41-3.3,0-5.16-2.48-5.16-5.9s1.91-5.92,5.23-5.92c2.2,0,4.58,1.32,4.91,4.33Z" style="fill: rgb(36, 192, 235);"/>
      <path class="m" d="M950.46,78.86c-2.77,0-5.4-1.6-5.4-5.92s2.62-5.9,5.4-5.9,5.4,1.57,5.4,5.9-2.65,5.92-5.4,5.92Zm0-9.6c-1.45,0-2.37,1.07-2.37,3.67s.92,3.7,2.37,3.7,2.37-1.09,2.37-3.7-.92-3.67-2.37-3.67Z" style="fill: rgb(36, 192, 235);"/>
      <path class="m" d="M966.14,63.36h3v15.22h-2.98l-.02-1.41c-.55,1.05-1.6,1.68-2.9,1.68-2.58,0-4.58-2.04-4.58-5.9s1.99-5.92,4.58-5.92c1.3,0,2.35,.63,2.9,1.68v-5.35Zm-2.23,5.9c-1.43,0-2.23,1.43-2.23,3.7s.8,3.67,2.23,3.67,2.33-1.3,2.33-3.67-.88-3.7-2.33-3.7Z" style="fill: rgb(36, 192, 235);"/>
      <path class="m" d="M975.15,73.72c.11,2.08,1.24,3,2.5,3s1.91-.61,2.14-1.66h2.88c-.32,1.91-2.02,3.8-5.06,3.8-3.53,0-5.35-2.35-5.35-5.82s1.95-6,5.31-6,5.4,2.52,5.29,6.68h-7.71Zm0-1.91h4.83c-.06-2.06-1.26-2.6-2.46-2.6-.97,0-2.21,.69-2.37,2.6Z" style="fill: rgb(36, 192, 235);"/>
      <path class="m" d="M996.13,71.36h-2.86c-.17-1.2-.73-2.1-2.08-2.1s-2.18,1.15-2.18,3.7,.84,3.67,2.18,3.67c.92,0,1.87-.46,2.14-2.18h2.9c-.4,3.07-2.81,4.41-5.08,4.41-3.3,0-5.16-2.48-5.16-5.9s1.91-5.92,5.23-5.92c2.2,0,4.58,1.32,4.91,4.33Z" style="fill: rgb(36, 192, 235);"/>
      <path class="m" d="M1003.19,78.86c-1.93,0-3.82-1.24-3.82-3.3,0-2.88,3.3-3.46,7.1-3.95v-.25c0-1.74-.76-2.33-1.99-2.33s-2.02,.59-2.1,1.83h-2.71c.21-2.23,2.04-3.86,4.91-3.86s4.79,1.13,4.79,4.96c0,.36-.04,1.87-.04,2.9,0,3.11,.13,3.4,.23,3.74h-2.75l-.02-1.45c-.8,1.2-1.95,1.72-3.59,1.72Zm3.36-5.4c-2.92,.29-4.2,.63-4.2,1.97,0,.84,.57,1.36,1.66,1.36,1.89,0,2.54-1.22,2.54-3.04v-.29Z" style="fill: rgb(36, 192, 235);"/>
      <path class="m" d="M1020.41,63.36h3v15.22h-2.98l-.02-1.41c-.55,1.05-1.6,1.68-2.9,1.68-2.58,0-4.58-2.04-4.58-5.9s1.99-5.92,4.58-5.92c1.3,0,2.35,.63,2.9,1.68v-5.35Zm-2.23,5.9c-1.43,0-2.23,1.43-2.23,3.7s.8,3.67,2.23,3.67,2.33-1.3,2.33-3.67-.88-3.7-2.33-3.7Z" style="fill: rgb(36, 192, 235);"/>
      <path class="m" d="M1029.42,73.72c.11,2.08,1.24,3,2.5,3s1.91-.61,2.14-1.66h2.88c-.32,1.91-2.02,3.8-5.06,3.8-3.53,0-5.35-2.35-5.35-5.82s1.95-6,5.31-6,5.4,2.52,5.29,6.68h-7.71Zm0-1.91h4.83c-.06-2.06-1.26-2.6-2.46-2.6-.97,0-2.21,.69-2.37,2.6Z" style="fill: rgb(36, 192, 235);"/>
      <path class="m" d="M1043.97,78.59v-7.56c0-1.32-.08-1.7-.61-1.7-.61,0-.76,.59-.76,2.37v6.89h-2.94v-11.3h2.94v.86c.38-.65,1.13-1.11,1.95-1.11,.88,0,1.53,.44,1.89,1.26,.48-.88,1.41-1.26,2.1-1.26,1.49,0,2.54,.84,2.54,3.55v8h-2.94v-7.56c0-1.32-.08-1.7-.61-1.7-.61,0-.76,.59-.76,2.37v6.89h-2.81Z" style="fill: rgb(36, 192, 235);"/>
      <path class="m" d="M1060.6,78.21c-1.34,3.46-1.81,4.05-4.43,4.05h-2.41v-2.25h2.23c.86,0,1.07-.19,1.49-1.15l.1-.27-4.35-11.3h3.13l2.75,7.71,2.65-7.71h2.98l-4.14,10.92Z" style="fill: rgb(36, 192, 235);"/>
      <path class="m" d="M1070.6,78.59v-3.74h3.91v3.74h-3.91Z" style="fill: rgb(36, 192, 235);"/>
      <path class="m" d="M1091.09,71.36h-2.86c-.17-1.2-.73-2.1-2.08-2.1s-2.18,1.15-2.18,3.7,.84,3.67,2.18,3.67c.92,0,1.87-.46,2.14-2.18h2.9c-.4,3.07-2.81,4.41-5.08,4.41-3.3,0-5.16-2.48-5.16-5.9s1.91-5.92,5.23-5.92c2.2,0,4.58,1.32,4.91,4.33Z" style="fill: rgb(36, 192, 235);"/>
      <path class="m" d="M1099.68,78.86c-2.77,0-5.4-1.6-5.4-5.92s2.62-5.9,5.4-5.9,5.4,1.57,5.4,5.9-2.65,5.92-5.4,5.92Zm0-9.6c-1.45,0-2.37,1.07-2.37,3.67s.92,3.7,2.37,3.7,2.37-1.09,2.37-3.7-.92-3.67-2.37-3.67Z" style="fill: rgb(36, 192, 235);"/>
      <path class="m" d="M1111.8,78.59v-7.56c0-1.32-.08-1.7-.61-1.7-.61,0-.76,.59-.76,2.37v6.89h-2.94v-11.3h2.94v.86c.38-.65,1.13-1.11,1.95-1.11,.88,0,1.53,.44,1.89,1.26,.48-.88,1.41-1.26,2.1-1.26,1.49,0,2.54,.84,2.54,3.55v8h-2.94v-7.56c0-1.32-.08-1.7-.61-1.7-.61,0-.76,.59-.76,2.37v6.89h-2.81Z" style="fill: rgb(36, 192, 235);"/>
    </g>
    <g>
      <path class="f" d="M86.04,223.86v-1.66h1.22v1.64c2.37,.17,4.47,1.62,4.79,4.79h-3.02c-.17-1.24-.78-2.1-1.76-2.35v3.86l.61,.15c2.02,.5,4.49,1.49,4.49,4.58,0,3.28-2.6,4.68-5.1,4.72v2.08h-1.22v-2.16c-2.75-.4-4.51-2.35-4.81-5.23h3.04c.17,1.32,.76,2.33,1.76,2.75v-4.16l-.63-.17c-2.04-.52-3.93-1.97-3.93-4.47,0-2.73,2.2-4.12,4.56-4.37Zm0,5.94v-3.55c-.86,.19-1.45,.84-1.45,1.68s.44,1.49,1.45,1.87Zm1.22,3.4v4.01c1.11-.06,1.97-.76,1.97-1.85s-.67-1.76-1.97-2.16Z" style="fill: rgb(255, 255, 255);"/>
      <path class="s" d="M111.19,225h3.02v3.02h4.41v2.29h-4.41v5.46c0,1.07,.36,1.28,1.24,1.28h3.13v2.27h-4.24c-2.46,0-3.15-.82-3.15-3.07v-5.94h-3.28v-2.29h3.28v-3.02Z" style="fill: rgb(27, 163, 74);"/>
      <path class="s" d="M125.91,239.59c-1.93,0-3.82-1.24-3.82-3.3,0-2.88,3.3-3.46,7.1-3.95v-.25c0-1.74-.76-2.33-1.99-2.33s-2.02,.59-2.1,1.83h-2.71c.21-2.23,2.04-3.86,4.91-3.86s4.79,1.13,4.79,4.96c0,.36-.04,1.87-.04,2.9,0,3.11,.13,3.4,.23,3.74h-2.75l-.02-1.45c-.8,1.2-1.95,1.72-3.59,1.72Zm3.36-5.4c-2.92,.29-4.2,.63-4.2,1.97,0,.84,.57,1.36,1.66,1.36,1.89,0,2.54-1.22,2.54-3.04v-.29Z" style="fill: rgb(27, 163, 74);"/>
      <path class="s" d="M141.6,228.02v1.91c.46-.97,1.34-1.91,3.13-1.91h1.72v2.41h-2.16c-1.91,0-2.65,.9-2.65,3.11v3.51h4.09v2.27h-9.93v-2.27h2.81v-6.74h-2.81v-2.29h5.79Z" style="fill: rgb(27, 163, 74);"/>
      <path class="o" d="M164.43,235.2v-2.92h7.43v2.92h-7.43Z" style="fill: rgb(243, 199, 56);"/>
      <path class="o" d="M186.69,232.09h-2.86c-.17-1.2-.73-2.1-2.08-2.1s-2.18,1.15-2.18,3.7,.84,3.67,2.18,3.67c.92,0,1.87-.46,2.14-2.18h2.9c-.4,3.07-2.81,4.41-5.08,4.41-3.3,0-5.16-2.48-5.16-5.9s1.91-5.92,5.23-5.92c2.2,0,4.58,1.32,4.91,4.33Z" style="fill: rgb(243, 199, 56);"/>
      <path class="o" d="M191.1,230.31v-2.29h6.53v11.19c0,3.17-.97,3.78-3.63,3.78h-3.59v-2.25h3.23c.92,0,.97-.25,.97-1.41v-9.03h-3.51Zm6.53-6.21v2.79h-3.02v-2.79h3.02Z" style="fill: rgb(243, 199, 56);"/>
      <path class="m" d="M223,228.02v1.91c.46-.97,1.34-1.91,3.13-1.91h1.72v2.41h-2.16c-1.91,0-2.64,.9-2.64,3.11v3.51h4.09v2.27h-9.93v-2.27h2.81v-6.74h-2.81v-2.29h5.79Z" style="fill: rgb(36, 192, 235);"/>
      <path class="m" d="M233.54,234.45c.11,2.08,1.24,3,2.5,3s1.91-.61,2.14-1.66h2.88c-.32,1.91-2.02,3.8-5.06,3.8-3.53,0-5.35-2.35-5.35-5.82s1.95-6,5.31-6,5.4,2.52,5.29,6.68h-7.71Zm0-1.91h4.83c-.06-2.06-1.26-2.6-2.46-2.6-.97,0-2.21,.69-2.37,2.6Z" style="fill: rgb(36, 192, 235);"/>
      <path class="m" d="M248.01,239.59c-1.93,0-3.82-1.24-3.82-3.3,0-2.88,3.3-3.46,7.1-3.95v-.25c0-1.74-.76-2.33-1.99-2.33s-2.02,.59-2.1,1.83h-2.71c.21-2.23,2.04-3.86,4.91-3.86s4.79,1.13,4.79,4.96c0,.36-.04,1.87-.04,2.9,0,3.11,.13,3.4,.23,3.74h-2.75l-.02-1.45c-.8,1.2-1.95,1.72-3.59,1.72Zm3.36-5.4c-2.92,.29-4.2,.63-4.2,1.97,0,.84,.57,1.36,1.66,1.36,1.89,0,2.54-1.22,2.54-3.04v-.29Z" style="fill: rgb(36, 192, 235);"/>
      <path class="m" d="M265.23,224.09h3v15.22h-2.98l-.02-1.41c-.55,1.05-1.6,1.68-2.9,1.68-2.58,0-4.58-2.04-4.58-5.9s1.99-5.92,4.58-5.92c1.3,0,2.35,.63,2.9,1.68v-5.35Zm-2.23,5.9c-1.43,0-2.23,1.43-2.23,3.7s.8,3.67,2.23,3.67,2.33-1.3,2.33-3.67-.88-3.7-2.33-3.7Z" style="fill: rgb(36, 192, 235);"/>
      <path class="m" d="M271.93,239.32v-2.27h3.28v-6.76h-3.28v-2.27h6.3v9.03h3.3v2.27h-9.59Zm6.3-15.22v2.79h-3.02v-2.79h3.02Z" style="fill: rgb(36, 192, 235);"/>
      <path class="m" d="M288.37,228.02v1.32c.65-1.01,1.68-1.57,3-1.57,2.6,0,3.67,1.74,3.67,4.45v7.1h-3.02v-6.59c0-1.2-.13-2.62-1.66-2.62-1.7,0-2,1.51-2,3.23v5.98h-3.02v-11.3h3.02Z" style="fill: rgb(36, 192, 235);"/>
      <path class="m" d="M305.92,228.02h3v10.14c0,3.72-1.97,5.08-5.23,5.08-2.27,0-4.39-.9-4.75-3.63h2.77c.19,.97,.8,1.47,2,1.47,1.51,0,2.2-1.01,2.2-2.39v-1.22c-.55,1.03-1.6,1.66-2.9,1.66-2.58,0-4.58-2.02-4.58-5.67s2-5.69,4.58-5.69c1.3,0,2.35,.63,2.9,1.68v-1.43Zm-2.23,1.97c-1.43,0-2.23,1.43-2.23,3.46s.8,3.46,2.23,3.46,2.33-1.3,2.33-3.46-.88-3.46-2.33-3.46Z" style="fill: rgb(36, 192, 235);"/>
      <path class="m" d="M319.38,231.38c-.21-.99-1.01-1.41-2.31-1.41-.92,0-1.66,.38-1.66,.99s.65,1.01,1.47,1.22l1.24,.29c2.23,.52,3.99,1.13,3.99,3.38,0,2.39-2.18,3.74-4.7,3.74-2.69,0-4.6-1.49-4.87-4.07h2.67c.13,1.15,.95,1.85,2.33,1.85,1.13,0,1.83-.4,1.83-1.15s-.8-1.09-1.74-1.32l-1.34-.31c-2.06-.48-3.46-1.41-3.46-3.4,0-2.18,1.97-3.4,4.43-3.4,2.08,0,4.35,1.03,4.74,3.61h-2.6Z" style="fill: rgb(36, 192, 235);"/>
      <path class="m" d="M328.98,239.32v-3.74h3.91v3.74h-3.91Z" style="fill: rgb(36, 192, 235);"/>
      <path class="m" d="M341.81,225h3.02v3.02h4.41v2.29h-4.41v5.46c0,1.07,.36,1.28,1.24,1.28h3.13v2.27h-4.24c-2.46,0-3.15-.82-3.15-3.07v-5.94h-3.28v-2.29h3.28v-3.02Z" style="fill: rgb(36, 192, 235);"/>
      <path class="m" d="M356.54,239.59c-1.93,0-3.82-1.24-3.82-3.3,0-2.88,3.3-3.46,7.1-3.95v-.25c0-1.74-.76-2.33-1.99-2.33s-2.02,.59-2.1,1.83h-2.71c.21-2.23,2.04-3.86,4.91-3.86s4.79,1.13,4.79,4.96c0,.36-.04,1.87-.04,2.9,0,3.11,.13,3.4,.23,3.74h-2.75l-.02-1.45c-.8,1.2-1.95,1.72-3.59,1.72Zm3.36-5.4c-2.92,.29-4.2,.63-4.2,1.97,0,.84,.57,1.36,1.66,1.36,1.89,0,2.54-1.22,2.54-3.04v-.29Z" style="fill: rgb(36, 192, 235);"/>
      <path class="m" d="M372.22,228.02v1.91c.46-.97,1.34-1.91,3.13-1.91h1.72v2.41h-2.16c-1.91,0-2.64,.9-2.64,3.11v3.51h4.09v2.27h-9.93v-2.27h2.81v-6.74h-2.81v-2.29h5.79Z" style="fill: rgb(36, 192, 235);"/>
      <path class="m" d="M396.67,229.45c.55-1.05,1.58-1.68,2.9-1.68,2.58,0,4.58,2.06,4.58,5.92s-1.99,5.9-4.58,5.9c-1.32,0-2.35-.63-2.9-1.68v5.08h-3.02v-14.97h3.02v1.43Zm2.23,7.92c1.41,0,2.22-1.41,2.22-3.67s-.82-3.7-2.22-3.7-2.33,1.32-2.33,3.7,.88,3.67,2.33,3.67Z" style="fill: rgb(36, 192, 235);"/>
      <path class="m" d="M412.33,239.59c-2.77,0-5.4-1.6-5.4-5.92s2.62-5.9,5.4-5.9,5.4,1.57,5.4,5.9-2.65,5.92-5.4,5.92Zm0-9.6c-1.45,0-2.37,1.07-2.37,3.67s.92,3.7,2.37,3.7,2.37-1.09,2.37-3.7-.92-3.67-2.37-3.67Z" style="fill: rgb(36, 192, 235);"/>
      <path class="m" d="M423.46,234.45c.11,2.08,1.24,3,2.5,3s1.91-.61,2.14-1.66h2.88c-.32,1.91-2.02,3.8-5.06,3.8-3.53,0-5.35-2.35-5.35-5.82s1.95-6,5.31-6,5.4,2.52,5.29,6.68h-7.71Zm0-1.91h4.83c-.06-2.06-1.26-2.6-2.46-2.6-.97,0-2.21,.69-2.37,2.6Z" style="fill: rgb(36, 192, 235);"/>
      <path class="m" d="M438.01,239.32v-7.56c0-1.32-.08-1.7-.61-1.7-.61,0-.76,.59-.76,2.37v6.89h-2.94v-11.3h2.94v.86c.38-.65,1.13-1.11,1.95-1.11,.88,0,1.53,.44,1.89,1.26,.48-.88,1.41-1.26,2.1-1.26,1.49,0,2.54,.84,2.54,3.55v8h-2.94v-7.56c0-1.32-.08-1.7-.61-1.7-.61,0-.76,.59-.76,2.37v6.89h-2.81Z" style="fill: rgb(36, 192, 235);"/>
      <path class="m" d="M451.08,239.32v-3.74h3.91v3.74h-3.91Z" style="fill: rgb(36, 192, 235);"/>
      <path class="m" d="M463.91,225h3.02v3.02h4.41v2.29h-4.41v5.46c0,1.07,.36,1.28,1.24,1.28h3.13v2.27h-4.24c-2.46,0-3.15-.82-3.15-3.07v-5.94h-3.28v-2.29h3.28v-3.02Z" style="fill: rgb(36, 192, 235);"/>
      <path class="m" d="M478.61,233.63l-3.65-5.61h3.32l1.99,3.19,2.04-3.19h3.06l-3.67,5.4,3.88,5.9h-3.34l-2.18-3.49-2.25,3.49h-3.06l3.86-5.69Z" style="fill: rgb(36, 192, 235);"/>
      <path class="m" d="M491.04,225h3.02v3.02h4.41v2.29h-4.41v5.46c0,1.07,.36,1.28,1.24,1.28h3.13v2.27h-4.24c-2.46,0-3.15-.82-3.15-3.07v-5.94h-3.28v-2.29h3.28v-3.02Z" style="fill: rgb(36, 192, 235);"/>
      <path class="m" d="M519.33,239.59c-1.93,0-3.82-1.24-3.82-3.3,0-2.88,3.3-3.46,7.1-3.95v-.25c0-1.74-.76-2.33-1.99-2.33s-2.02,.59-2.1,1.83h-2.71c.21-2.23,2.04-3.86,4.91-3.86s4.79,1.13,4.79,4.96c0,.36-.04,1.87-.04,2.9,0,3.11,.13,3.4,.23,3.74h-2.75l-.02-1.45c-.8,1.2-1.95,1.72-3.59,1.72Zm3.36-5.4c-2.92,.29-4.2,.63-4.2,1.97,0,.84,.57,1.36,1.66,1.36,1.89,0,2.54-1.22,2.54-3.04v-.29Z" style="fill: rgb(36, 192, 235);"/>
      <path class="m" d="M535.01,228.02v1.91c.46-.97,1.34-1.91,3.13-1.91h1.72v2.41h-2.16c-1.91,0-2.64,.9-2.64,3.11v3.51h4.09v2.27h-9.93v-2.27h2.81v-6.74h-2.81v-2.29h5.79Z" style="fill: rgb(36, 192, 235);"/>
      <path class="m" d="M545.3,225h3.02v3.02h4.41v2.29h-4.41v5.46c0,1.07,.36,1.28,1.24,1.28h3.13v2.27h-4.24c-2.46,0-3.15-.82-3.15-3.07v-5.94h-3.28v-2.29h3.28v-3.02Z" style="fill: rgb(36, 192, 235);"/>
      <path class="m" d="M556.81,239.32v-2.27h3.28v-6.76h-3.28v-2.27h6.3v9.03h3.3v2.27h-9.59Zm6.3-15.22v2.79h-3.02v-2.79h3.02Z" style="fill: rgb(36, 192, 235);"/>
      <path class="m" d="M580.1,232.09h-2.86c-.17-1.2-.74-2.1-2.08-2.1s-2.18,1.15-2.18,3.7,.84,3.67,2.18,3.67c.92,0,1.87-.46,2.14-2.18h2.9c-.4,3.07-2.81,4.41-5.08,4.41-3.3,0-5.17-2.48-5.17-5.9s1.91-5.92,5.23-5.92c2.21,0,4.58,1.32,4.91,4.33Z" style="fill: rgb(36, 192, 235);"/>
      <path class="m" d="M583.96,239.32v-2.27h3.28v-10.71h-3.28v-2.25h6.3v12.95h3.28v2.27h-9.57Z" style="fill: rgb(36, 192, 235);"/>
      <path class="m" d="M599.82,234.45c.11,2.08,1.24,3,2.5,3s1.91-.61,2.14-1.66h2.88c-.32,1.91-2.02,3.8-5.06,3.8-3.53,0-5.35-2.35-5.35-5.82s1.95-6,5.31-6,5.4,2.52,5.29,6.68h-7.71Zm0-1.91h4.83c-.06-2.06-1.26-2.6-2.46-2.6-.97,0-2.21,.69-2.37,2.6Z" style="fill: rgb(36, 192, 235);"/>
      <path class="m" d="M613.87,239.32v-3.74h3.91v3.74h-3.91Z" style="fill: rgb(36, 192, 235);"/>
      <path class="m" d="M626.7,225h3.02v3.02h4.41v2.29h-4.41v5.46c0,1.07,.36,1.28,1.24,1.28h3.13v2.27h-4.24c-2.46,0-3.15-.82-3.15-3.07v-5.94h-3.28v-2.29h3.28v-3.02Z" style="fill: rgb(36, 192, 235);"/>
      <path class="m" d="M641.4,233.63l-3.65-5.61h3.32l1.99,3.19,2.04-3.19h3.06l-3.67,5.4,3.88,5.9h-3.34l-2.18-3.49-2.25,3.49h-3.06l3.86-5.69Z" style="fill: rgb(36, 192, 235);"/>
      <path class="m" d="M653.83,225h3.02v3.02h4.41v2.29h-4.41v5.46c0,1.07,.36,1.28,1.24,1.28h3.13v2.27h-4.24c-2.46,0-3.15-.82-3.15-3.07v-5.94h-3.28v-2.29h3.28v-3.02Z" style="fill: rgb(36, 192, 235);"/>
      <path class="m" d="M682.12,239.59c-1.93,0-3.82-1.24-3.82-3.3,0-2.88,3.3-3.46,7.1-3.95v-.25c0-1.74-.76-2.33-1.99-2.33s-2.02,.59-2.1,1.83h-2.71c.21-2.23,2.04-3.86,4.91-3.86s4.79,1.13,4.79,4.96c0,.36-.04,1.87-.04,2.9,0,3.11,.13,3.4,.23,3.74h-2.75l-.02-1.45c-.8,1.2-1.95,1.72-3.59,1.72Zm3.36-5.4c-2.92,.29-4.2,.63-4.2,1.97,0,.84,.57,1.36,1.66,1.36,1.89,0,2.54-1.22,2.54-3.04v-.29Z" style="fill: rgb(36, 192, 235);"/>
      <path class="m" d="M697.8,228.02v1.91c.46-.97,1.34-1.91,3.13-1.91h1.72v2.41h-2.16c-1.91,0-2.64,.9-2.64,3.11v3.51h4.09v2.27h-9.93v-2.27h2.81v-6.74h-2.81v-2.29h5.79Z" style="fill: rgb(36, 192, 235);"/>
      <path class="m" d="M708.09,225h3.02v3.02h4.41v2.29h-4.41v5.46c0,1.07,.36,1.28,1.24,1.28h3.13v2.27h-4.24c-2.46,0-3.15-.82-3.15-3.07v-5.94h-3.28v-2.29h3.28v-3.02Z" style="fill: rgb(36, 192, 235);"/>
      <path class="m" d="M719.6,239.32v-2.27h3.28v-6.76h-3.28v-2.27h6.3v9.03h3.3v2.27h-9.59Zm6.3-15.22v2.79h-3.02v-2.79h3.02Z" style="fill: rgb(36, 192, 235);"/>
      <path class="m" d="M742.89,232.09h-2.86c-.17-1.2-.74-2.1-2.08-2.1s-2.18,1.15-2.18,3.7,.84,3.67,2.18,3.67c.92,0,1.87-.46,2.14-2.18h2.9c-.4,3.07-2.81,4.41-5.08,4.41-3.3,0-5.17-2.48-5.17-5.9s1.91-5.92,5.23-5.92c2.21,0,4.58,1.32,4.91,4.33Z" style="fill: rgb(36, 192, 235);"/>
      <path class="m" d="M746.75,239.32v-2.27h3.28v-10.71h-3.28v-2.25h6.3v12.95h3.28v2.27h-9.57Z" style="fill: rgb(36, 192, 235);"/>
      <path class="m" d="M762.61,234.45c.11,2.08,1.24,3,2.5,3s1.91-.61,2.14-1.66h2.88c-.32,1.91-2.02,3.8-5.06,3.8-3.53,0-5.35-2.35-5.35-5.82s1.95-6,5.31-6,5.4,2.52,5.29,6.68h-7.71Zm0-1.91h4.83c-.06-2.06-1.26-2.6-2.46-2.6-.97,0-2.21,.69-2.37,2.6Z" style="fill: rgb(36, 192, 235);"/>
      <path class="m" d="M774.9,235.2v-2.92h7.43v2.92h-7.43Z" style="fill: rgb(36, 192, 235);"/>
      <path class="m" d="M797.26,228.25c0,2.58-1.89,4.7-4.72,7.14l-1.66,1.45h6.3v2.48h-10.25v-2.46l3.17-2.77c2.42-2.08,4.14-3.97,4.14-5.77,0-1.49-1.01-2.1-1.91-2.1-1.34,0-2.35,1.13-2.29,3.38h-2.94c-.1-3.78,2.23-5.71,5.27-5.71,2.77,0,4.89,1.6,4.89,4.37Z" style="fill: rgb(36, 192, 235);"/>
      <path class="m" d="M803.79,239.32v-3.74h3.91v3.74h-3.91Z" style="fill: rgb(36, 192, 235);"/>
      <path class="m" d="M816.62,225h3.02v3.02h4.41v2.29h-4.41v5.46c0,1.07,.36,1.28,1.24,1.28h3.13v2.27h-4.24c-2.46,0-3.15-.82-3.15-3.07v-5.94h-3.28v-2.29h3.28v-3.02Z" style="fill: rgb(36, 192, 235);"/>
      <path class="m" d="M831.32,233.63l-3.65-5.61h3.32l1.99,3.19,2.04-3.19h3.06l-3.67,5.4,3.88,5.9h-3.34l-2.18-3.49-2.25,3.49h-3.06l3.86-5.69Z" style="fill: rgb(36, 192, 235);"/>
      <path class="m" d="M843.75,225h3.02v3.02h4.41v2.29h-4.41v5.46c0,1.07,.36,1.28,1.24,1.28h3.13v2.27h-4.24c-2.46,0-3.15-.82-3.15-3.07v-5.94h-3.28v-2.29h3.28v-3.02Z" style="fill: rgb(36, 192, 235);"/>
    </g>
    <g>
      <path class="l" d="M193.11,396.79c0-1.68,.07-3.35,.21-5" style="fill: none; stroke: rgb(232, 85, 48); stroke-miterlimit: 10; stroke-width: 3px;"/>
      <path class="k" d="M194.16,385.63c.99-5.18,2.66-10.12,4.92-14.72" style="fill: none; stroke: rgb(232, 85, 48); stroke-dasharray: 0px, 0px, 12.45px, 6.22px; stroke-miterlimit: 10; stroke-width: 3px;"/>
      <path class="l" d="M200.52,368.15c.81-1.46,1.68-2.88,2.61-4.26" style="fill: none; stroke: rgb(232, 85, 48); stroke-miterlimit: 10; stroke-width: 3px;"/>
    </g>
    <g>
      <path class="l" d="M75.24,396.79c0-1.68,.07-3.35,.21-5" style="fill: none; stroke: rgb(232, 85, 48); stroke-miterlimit: 10; stroke-width: 3px;"/>
      <path class="j" d="M76.1,386.68c4.79-27.73,28.97-48.83,58.07-48.83s54.74,22.4,58.45,51.37" style="fill: none; stroke: rgb(232, 85, 48); stroke-dasharray: 0px, 0px, 10.3px, 5.15px; stroke-miterlimit: 10; stroke-width: 3px;"/>
      <path class="l" d="M192.9,391.79c.14,1.65,.21,3.31,.21,5" style="fill: none; stroke: rgb(232, 85, 48); stroke-miterlimit: 10; stroke-width: 3px;"/>
    </g>
    <g>
      <polygon class="f" points="368.58 340.34 368.58 401.76 311.47 401.76 302.22 391.36 302.22 340.34 368.58 340.34" style="fill: rgb(255, 255, 255);"/>
      <path class="t" d="M368.58,402.76h-57.11c-.29,0-.56-.12-.75-.33l-9.25-10.4c-.16-.18-.25-.42-.25-.67v-51.02c0-.55,.45-1,1-1h66.36c.55,0,1,.45,1,1v61.42c0,.55-.45,1-1,1Zm-56.66-2h55.66v-59.42h-64.36v49.64l8.7,9.78Z" style="fill: rgb(35, 31, 32);"/>
    </g>
    <g>
      <polygon class="r" points="311.47 401.76 311.47 455.7 269.62 408.64 269.62 396.24 274.53 401.76 311.47 401.76" style="fill: rgb(243, 223, 214);"/>
      <path class="i" d="M311.47,456.7c-.28,0-.55-.12-.75-.34l-41.85-47.06c-.16-.18-.25-.42-.25-.66v-12.4c0-.42,.26-.79,.64-.93,.39-.15,.83-.04,1.1,.27l4.61,5.18h36.49c.55,0,1,.45,1,1v53.94c0,.42-.26,.79-.64,.93-.12,.04-.24,.07-.36,.07Zm-40.85-48.44l39.85,44.81v-50.31h-35.94c-.29,0-.56-.12-.75-.33l-3.16-3.56v9.39Z" style="fill: rgb(237, 131, 103);"/>
    </g>
    <g>
      <polygon class="r" points="385.99 436.1 385.99 455.7 311.47 455.7 311.47 401.76 321.19 426.22 325.11 436.1 385.99 436.1" style="fill: rgb(243, 223, 214);"/>
      <path class="i" d="M385.99,456.7h-74.52c-.55,0-1-.45-1-1v-53.94c0-.48,.34-.89,.81-.98,.47-.09,.94,.17,1.12,.61l13.39,33.71h60.2c.55,0,1,.45,1,1v19.6c0,.55-.45,1-1,1Zm-73.52-2h72.52v-17.6h-59.88c-.41,0-.78-.25-.93-.63l-11.71-29.48v47.72Z" style="fill: rgb(237, 131, 103);"/>
    </g>
    <g>
      <rect class="f" x="193.11" y="277.86" width="66.36" height="85.88" style="fill: rgb(255, 255, 255);"/>
      <path class="t" d="M260.47,364.74h-68.36v-87.88h68.36v87.88Zm-66.36-2h64.36v-83.88h-64.36v83.88Z" style="fill: rgb(35, 31, 32);"/>
    </g>
    <circle class="m" cx="938.97" cy="171.92" r="5" style="fill: rgb(36, 192, 235);"/>
    <circle class="m" cx="973.63" cy="127.99" r="5" style="fill: rgb(36, 192, 235);"/>
    <g>
      <polygon class="r" points="399.63 436.1 325.11 436.1 321.19 426.22 311.47 401.76 385.99 401.76 399.63 436.1" style="fill: rgb(243, 223, 214);"/>
      <path class="i" d="M399.63,437.1h-74.52c-.41,0-.78-.25-.93-.63l-13.64-34.34c-.12-.31-.08-.66,.1-.93,.19-.27,.5-.44,.83-.44h74.52c.41,0,.78,.25,.93,.63l13.64,34.34c.12,.31,.08,.66-.1,.93-.19,.27-.5,.44-.83,.44Zm-73.84-2h72.37l-12.85-32.34h-72.37l12.85,32.34Z" style="fill: rgb(237, 131, 103);"/>
    </g>
    <path class="t" d="M209.47,299.83c-3.2,0-6.4-1.22-8.83-3.65-.39-.39-.39-1.02,0-1.41s1.02-.39,1.41,0c4.09,4.09,10.75,4.09,14.84,0,.39-.39,1.02-.39,1.41,0s.39,1.02,0,1.41c-2.43,2.44-5.63,3.65-8.83,3.65Z" style="fill: rgb(35, 31, 32);"/>
    <circle class="t" cx="204.86" cy="287.73" r="1.96" style="fill: rgb(35, 31, 32);"/>
    <circle class="t" cx="214.08" cy="287.73" r="1.96" style="fill: rgb(35, 31, 32);"/>
    <path class="t" d="M300.19,333.73c-3.33,0-6.47-1.3-8.83-3.66-.39-.39-.39-1.02,0-1.41s1.02-.39,1.41,0c1.98,1.98,4.62,3.08,7.42,3.08s5.44-1.09,7.42-3.08c.39-.39,1.02-.39,1.41,0s.39,1.02,0,1.41c-2.36,2.36-5.5,3.66-8.83,3.66Z" style="fill: rgb(35, 31, 32);"/>
    <circle class="t" cx="295.58" cy="321.62" r="1.96" style="fill: rgb(35, 31, 32);"/>
    <circle class="t" cx="304.8" cy="321.62" r="1.96" style="fill: rgb(35, 31, 32);"/>
    <path class="t" d="M318.58,362.32c-3.33,0-6.47-1.3-8.83-3.66-.39-.39-.39-1.02,0-1.41s1.02-.39,1.41,0c1.98,1.98,4.62,3.08,7.42,3.08s5.44-1.09,7.42-3.08c.39-.39,1.02-.39,1.41,0s.39,1.02,0,1.41c-2.36,2.36-5.5,3.66-8.83,3.66Z" style="fill: rgb(35, 31, 32);"/>
    <circle class="t" cx="313.97" cy="350.22" r="1.96" style="fill: rgb(35, 31, 32);"/>
    <circle class="t" cx="323.19" cy="350.22" r="1.96" style="fill: rgb(35, 31, 32);"/>
    <g>
      <polygon class="r" points="302.22 391.36 311.47 401.76 274.53 401.76 269.62 396.24 232.67 354.69 269.62 354.69 283.83 370.67 302.22 391.36" style="fill: rgb(243, 223, 214);"/>
      <path class="i" d="M311.47,402.76h-36.94c-.29,0-.56-.12-.75-.33l-41.86-47.07c-.26-.29-.33-.71-.17-1.07,.16-.36,.52-.59,.91-.59h36.95c.29,0,.56,.12,.75,.34l41.85,47.07c.26,.29,.33,.71,.17,1.07-.16,.36-.52,.59-.91,.59Zm-36.49-2h34.26l-7.77-8.73h0l-32.3-36.34h-34.27l40.08,45.07Z" style="fill: rgb(237, 131, 103);"/>
    </g>
    <path class="l" d="M237.3,339.72c4.71-1.21,9.65-1.86,14.75-1.86,10.33,0,20.05,2.66,28.49,7.33" style="fill: none; stroke: rgb(232, 85, 48); stroke-miterlimit: 10; stroke-width: 3px;"/>
    <polygon class="u" points="267.69 349.7 267.01 347.4 278.37 344.08 274.23 332.99 276.48 332.15 281.52 345.66 267.69 349.7" style="fill: rgb(232, 85, 48);"/>
    <g>
      <rect class="u" x="115.26" y="612.15" width="152.32" height="110.09" rx="2" ry="2" style="fill: rgb(232, 85, 48);"/>
      <path class="q" d="M265.58,723.24H117.27c-1.65,0-3-1.35-3-3v-106.09c0-1.65,1.35-3,3-3h148.32c1.65,0,3,1.35,3,3v106.09c0,1.65-1.35,3-3,3Zm-148.32-110.09c-.55,0-1,.45-1,1v106.09c0,.55,.45,1,1,1h148.32c.55,0,1-.45,1-1v-106.09c0-.55-.45-1-1-1H117.27Z" style="fill: rgb(179, 62, 49);"/>
    </g>
    <path class="t" d="M192.58,722.23h-2c0-4.89,7.14-8.72,16.25-8.72v2c-7.73,0-14.25,3.08-14.25,6.72Z" style="fill: rgb(35, 31, 32);"/>
    <rect class="t" x="206.83" y="713.51" width="49.4" height="2" style="fill: rgb(35, 31, 32);"/>
    <path class="t" d="M192.58,722.23h-2c0-3.64-6.53-6.72-14.26-6.72v-2c9.12,0,16.26,3.83,16.26,8.72Z" style="fill: rgb(35, 31, 32);"/>
    <rect class="t" x="126.92" y="713.51" width="49.4" height="2" style="fill: rgb(35, 31, 32);"/>
    <g>
      <path class="f" d="M191.58,612.14c0-8.53,6.83-15.44,15.26-15.44h49.4v110.09h-49.4c-8.43,0-15.26,6.91-15.26,15.44,0-8.53-6.83-15.44-15.26-15.44h-49.4v-110.09h49.4c8.43,0,15.26,6.91,15.26,15.44Z" style="fill: rgb(255, 255, 255);"/>
      <path class="t" d="M191.58,723.23c-.55,0-1-.45-1-1,0-7.96-6.4-14.44-14.26-14.44h-49.4c-.55,0-1-.45-1-1v-110.09c0-.55,.45-1,1-1h49.4c6.99,0,12.96,4.48,15.26,10.76,2.29-6.27,8.26-10.76,15.25-10.76h49.4c.55,0,1,.45,1,1v110.09c0,.55-.45,1-1,1h-49.4c-7.86,0-14.25,6.48-14.25,14.44,0,.55-.45,1-1,1Zm-63.66-17.44h48.4c6.99,0,12.96,4.48,15.26,10.76,2.29-6.27,8.26-10.76,15.25-10.76h48.4v-108.09h-48.4c-7.86,0-14.25,6.48-14.25,14.44,0,.55-.45,1-1,1s-1-.45-1-1c0-7.96-6.4-14.44-14.26-14.44h-48.4v108.09Z" style="fill: rgb(35, 31, 32);"/>
    </g>
    <rect class="t" x="190.58" y="612.14" width="2" height="110.09" style="fill: rgb(35, 31, 32);"/>
    <circle class="m" cx="974.62" cy="186.59" r="5" style="fill: rgb(36, 192, 235);"/>
    <path class="f" d="M1068.73,213.19l-9.74-10.17,9.6-6.39-30.45-13.94,12.61,31.02,6.79-9.31,9.74,10.17c.2,.21,.46,.31,.72,.31,.25,0,.5-.09,.69-.28,.4-.38,.41-1.02,.03-1.41Zm-26.84-26.57l22.6,10.34-7.75,5.16-5.49,7.52-9.36-23.02Z" style="fill: rgb(255, 255, 255);"/>
    <g>
      <path class="f" d="M950.87,193.19c-.54,0-.98-.42-1-.96-.02-.55,.41-1.02,.96-1.04,.96-.03,1.95-.1,2.94-.18,.55-.04,1.04,.36,1.08,.91,.05,.55-.36,1.04-.91,1.08-1.02,.09-2.04,.15-3.04,.19h-.04Zm-4,0h-.04c-1.03-.04-2.06-.12-3.06-.22-.55-.06-.95-.55-.89-1.1s.52-.95,1.1-.89c.95,.1,1.94,.17,2.93,.21,.55,.02,.98,.49,.96,1.04-.02,.54-.46,.96-1,.96Zm10.96-.66c-.49,0-.91-.35-.99-.85-.08-.55,.29-1.06,.84-1.14,.96-.15,1.94-.32,2.91-.51,.54-.11,1.07,.24,1.18,.78,.11,.54-.24,1.07-.78,1.18-1,.2-2.01,.38-3,.53-.05,0-.1,.01-.15,.01Zm-17.91-.15c-.07,0-.13,0-.2-.02-1.02-.21-2.03-.45-2.99-.73-.53-.15-.84-.71-.68-1.24,.15-.53,.71-.84,1.24-.68,.92,.26,1.87,.5,2.84,.69,.54,.11,.89,.64,.78,1.18-.1,.47-.51,.8-.98,.8Zm24.76-1.26c-.44,0-.85-.3-.97-.75-.14-.53,.18-1.08,.72-1.22,.95-.24,1.9-.51,2.85-.8,.53-.16,1.09,.14,1.25,.67,.16,.53-.14,1.09-.67,1.25-.98,.3-1.96,.57-2.93,.82-.08,.02-.17,.03-.25,.03Zm-31.44-.78c-.13,0-.26-.03-.39-.08-.97-.41-1.91-.87-2.79-1.36-.48-.27-.66-.88-.39-1.36,.27-.48,.88-.66,1.36-.39,.82,.46,1.7,.88,2.6,1.27,.51,.22,.75,.8,.53,1.31-.16,.38-.53,.61-.92,.61Zm38.13-1.28c-.41,0-.79-.25-.94-.66-.19-.52,.08-1.09,.6-1.28,.92-.33,1.85-.68,2.77-1.05,.51-.2,1.09,.04,1.3,.56,.21,.51-.04,1.09-.56,1.3-.95,.38-1.89,.74-2.84,1.07-.11,.04-.23,.06-.34,.06Zm-44.16-2.23c-.21,0-.43-.07-.61-.21-.83-.65-1.62-1.34-2.34-2.07-.39-.39-.39-1.03,0-1.41,.39-.39,1.03-.39,1.41,0,.66,.67,1.39,1.31,2.15,1.9,.44,.34,.51,.97,.17,1.4-.2,.25-.49,.39-.79,.39Zm50.65-.4c-.38,0-.74-.22-.91-.59-.23-.5,0-1.1,.5-1.32,.89-.41,1.79-.83,2.68-1.27,.5-.25,1.09-.04,1.34,.45,.25,.49,.04,1.09-.45,1.34-.91,.45-1.83,.89-2.74,1.3-.13,.06-.28,.09-.41,.09Zm6.25-3.15c-.35,0-.69-.19-.88-.52-.27-.48-.09-1.09,.39-1.36,.86-.48,1.72-.97,2.57-1.48,.47-.28,1.09-.13,1.37,.35,.28,.47,.13,1.09-.35,1.37-.87,.52-1.75,1.03-2.63,1.51-.15,.09-.32,.13-.48,.13Zm-61.69-1.51c-.32,0-.63-.15-.82-.43-.18-.26-.35-.52-.52-.79-.3-.47-.16-1.08,.31-1.38,.47-.29,1.08-.16,1.38,.31,.16,.25,.32,.49,.48,.73,.31,.46,.2,1.08-.26,1.39-.17,.12-.37,.18-.57,.18Zm67.67-2.11c-.33,0-.64-.16-.84-.45-.3-.46-.18-1.08,.29-1.39,.83-.55,1.65-1.1,2.45-1.67,.45-.32,1.07-.21,1.39,.24,.32,.45,.21,1.08-.24,1.39-.82,.58-1.66,1.15-2.5,1.71-.17,.11-.36,.16-.55,.16Zm5.69-4.07c-.3,0-.59-.13-.79-.39-.34-.44-.26-1.06,.18-1.4,.79-.61,1.56-1.23,2.31-1.85,.42-.35,1.05-.29,1.41,.13,.35,.43,.29,1.06-.13,1.41-.77,.64-1.56,1.27-2.37,1.9-.18,.14-.4,.21-.61,.21Zm5.35-4.5c-.27,0-.54-.11-.74-.33-.37-.41-.34-1.04,.07-1.41,.74-.67,1.45-1.35,2.15-2.04,.39-.39,1.03-.38,1.41,.01,.39,.39,.38,1.03-.01,1.41-.72,.7-1.45,1.4-2.21,2.09-.19,.17-.43,.26-.67,.26Z" style="fill: rgb(255, 255, 255);"/>
      <path class="f" d="M986.93,170.64c.11,.54,.65,.88,1.19,.77l14.97-3.18-3.45,14.91c-.12,.54,.21,1.08,.75,1.2,.54,.12,1.08-.22,1.2-.75l3.8-16.44c.08-.33-.02-.68-.26-.93-.24-.24-.59-.35-.92-.28l-16.5,3.5c-.19,.04-.36,.14-.49,.26-.24,.23-.35,.57-.28,.92Z" style="fill: rgb(255, 255, 255);"/>
    </g>
    <circle class="h" cx="262.72" cy="695.57" r="29.61" style="fill: rgb(36, 192, 235); stroke: rgb(22, 125, 192); stroke-linecap: round; stroke-linejoin: round; stroke-width: 4px;"/>
    <path class="n" d="M303.03,736.88c-.26,0-.51-.1-.71-.29l-19.37-19.37c-.39-.39-.39-1.02,0-1.41s1.02-.39,1.41,0l19.37,19.37c.39,.39,.39,1.02,0,1.41-.2,.2-.45,.29-.71,.29Z" style="fill: rgb(22, 125, 192);"/>
    <g>
      <path class="p" d="M312.72,750c-1.19,0-2.37-.45-3.28-1.36l-19.37-19.37c-1.81-1.81-1.81-4.74,0-6.55,1.81-1.81,4.75-1.81,6.55,0l19.37,19.37c1.81,1.81,1.81,4.75,0,6.55-.91,.91-2.09,1.36-3.28,1.36Z" style="fill: rgb(191, 185, 180);"/>
      <path class="n" d="M312.72,751c-1.5,0-2.92-.59-3.98-1.65l-19.37-19.37c-1.06-1.06-1.65-2.48-1.65-3.98s.59-2.92,1.65-3.98c1.06-1.06,2.48-1.65,3.98-1.65h0c1.51,0,2.92,.59,3.98,1.65l19.37,19.37c1.06,1.06,1.65,2.48,1.65,3.98,0,1.5-.59,2.92-1.65,3.98-1.06,1.06-2.48,1.65-3.98,1.65Zm-19.37-28.64c-.97,0-1.88,.38-2.57,1.06-.69,.69-1.07,1.6-1.07,2.57s.38,1.88,1.06,2.57l19.37,19.37c1.37,1.37,3.77,1.37,5.14,0,.69-.69,1.06-1.6,1.06-2.57s-.38-1.88-1.06-2.57l-19.37-19.37c-.69-.69-1.6-1.06-2.57-1.06h0Z" style="fill: rgb(22, 125, 192);"/>
    </g>
    <g>
      <path class="u" d="M1002.89,645.06c-.26,0-.53-.07-.78-.22-.71-.43-.94-1.35-.51-2.06,6-9.92,10.09-20.78,12.17-32.29,.87-4.8,1.37-9.69,1.49-14.52,.02-.83,.68-1.45,1.54-1.46,.83,.02,1.48,.71,1.46,1.54-.12,4.98-.64,10.02-1.53,14.98-2.14,11.87-6.36,23.08-12.55,33.31-.28,.47-.78,.72-1.28,.72Z" style="fill: rgb(232, 85, 48);"/>
      <polygon class="u" points="997.04 628.77 999.96 628.08 1003.34 642.48 1017.45 638.07 1018.35 640.93 1001.15 646.31 997.04 628.77" style="fill: rgb(232, 85, 48);"/>
    </g>
    <path class="n" d="M973.53,214.56c-10.46,0-20.76-2.87-29.91-8.46-13.14-8.02-22.37-20.67-25.99-35.64-7.48-30.89,11.57-62.09,42.45-69.57h0c30.9-7.47,62.1,11.57,69.57,42.46,7.48,30.89-11.57,62.09-42.46,69.57-4.53,1.1-9.11,1.64-13.66,1.64Zm-12.98-111.72c-29.81,7.22-48.2,37.34-40.98,67.16,3.5,14.44,12.41,26.66,25.09,34.4,12.68,7.74,27.63,10.08,42.06,6.58,29.81-7.22,48.2-37.34,40.98-67.16-7.22-29.81-37.34-48.2-67.16-40.98h0Z" style="fill: rgb(22, 125, 192);"/>
    <rect class="q" x="182.13" y="721.24" width="17.88" height="2" style="fill: rgb(179, 62, 49);"/>
  </g>
  <g id="c" transform="matrix(1, 0, 0, 1, -246.895376, -152.435031)">
    <path d="M624.82,510.18l1.19,14.55-2.02,10.94-1.49,9.92-.21,8.73-.58,6.84c-25.17-8.71-51.44-9.06-60.16-3.48l.25-.52-.61-7.2-2.24-7.88-.81-5.16c10.13,9.35,41.66,8.2,66.68-26.74Z"/>
    <path class="f" d="M637.01,480.59c-.44,3.13,.77,10.13-.03,9.96s-4.64-5.02-5.79-5.18-2.72-.03-3.47,.29-1.76,1.13-2.24,1.81-1,2.08-1.16,3.11-.19,3.44-.08,5.35,.3,6.06,.41,9.21l.18,5.03c.11,3.16-1.39,7.77-3.34,10.26,0,0-2.82,3.6-6.1,6.8-5.03,4.91-10.18,8.53-15.25,11.09-7.87,3.99-15.54,5.45-22.27,5.29-4.95-.11-9.39-1.1-13.02-2.6l-2.74-1.13c-2.18-1.64-3.97-2.98-3.97-2.98s-.39-.74-.85-1.62-2.21-3.29-3.88-5.36-5.97-5.69-5.41-5.65,5.04,2.03,5.84,2.03,2.13-.23,2.97-.51,2.05-1.06,2.69-1.74,1.42-2.01,1.73-2.97,.48-2.68,.36-3.83-.81-3.27-1.52-4.7-2.31-3.64-3.54-4.92-4.16-4.05-6.5-6.18l-7.92-7.18c-2.34-2.12-4.62-4.15-5.07-4.5l-.41-.33-.33-.27c-.34-.3-.84-.74-1.11-.98s-1.1-1.02-1.27-1.19-1.24-1.29-2.01-2.1l-.62-.78-.3-.36c-.3-.4-.68-.91-.84-1.12s-.35-3.37-.1-6.52c0,0,.71-8.97,1.62-14.98,1.37-9.09,3.26-16.35,5.81-22.61,2.51-6.2,6.3-11.7,6.3-11.7,1.79-2.6,3.17-5.77,3.07-7.04s-.02-3.71,.2-5.41,.92-4.52,1.58-6.25,1.95-4.54,2.87-6.24,2.49-4.34,3.47-5.86,2.21-3.57,2.72-4.56,1.19-2.43,1.51-3.2,.74-2.19,.92-3.15,.35-2.96,.38-4.45,.03-3.95,0-5.47,.14-2.64,.38-2.5,.96,.8,1.61,1.45,1.72,2.1,2.39,3.2,1.82,2.82,2.55,3.82,2.15,2.44,3.15,3.22,2.64,1.71,3.65,2.08,3.02,.65,4.47,.62,3.64-.3,4.89-.59,3.24-1.06,4.43-1.7,3.27-1.94,4.61-2.89,3.58-2.69,4.99-3.86,3.42-2.52,4.48-2.98,2.43-1.12,3.04-1.47,1.31-.82,1.55-1.05,.81,.28,1.25,1.14,1.14,2.62,1.56,3.9,1.39,3.65,2.17,5.26,2.12,4.47,2.98,6.35,2.08,4.64,2.71,6.13,1.48,3.93,1.91,5.43,1.11,3.94,1.52,5.43,.93,3.71,1.13,4.93,.37,2.96,.37,3.86,1.38,3.82,3.06,6.49c0,0,5.78,9.19,9.11,16.31,2.64,5.68,3.37,11.98,4.06,19.92,.66,7.54-1.52,22.84-1.52,22.84Z" style="fill: rgb(255, 255, 255);"/>
    <path class="o" d="M694.49,527.71c.16,1.15-.07,2.97-.51,4.04s-1.64,2.77-2.68,3.76-3.41,2.66-5.29,3.69-5.1,2.89-7.17,4.12-5.26,3.12-7.09,4.19-4.85,3.22-6.72,4.78-4.64,4.29-6.15,6.08-3.96,4.3-5.43,5.57-3.81,3.13-5.21,4.12-3.9,2.14-5.57,2.54-4.44,.56-6.14,.36-4.51-.86-6.22-1.45-4.25-2.26-5.64-3.69-2.62-3.07-2.74-3.64-.44-2.2-.73-3.62-.45-4.57-.37-7,.51-6.88,.94-9.91,1.12-7.71,1.51-10.42,.95-7.26,1.23-10.13,.42-7.79,.31-10.95l-.18-5.03c-.11-3.16-.3-7.3-.42-9.21s-.09-4.31,.07-5.35,.68-2.44,1.16-3.12,1.49-1.49,2.25-1.81,2.32-.45,3.47-.29,2.86,.45,3.8,.64,2.05,.42,2.46,.51,.88,.16,1.05,.16,.16,.41-.02,.91-.31,2.86-.31,5.25,.76,5.46,1.69,6.83,3.39,3.13,5.48,3.9,5.21,1.27,6.94,1.09,4.42-.89,5.97-1.57,4.19-2.73,5.86-4.55,3.61-4.74,4.32-6.5,1.3-3.25,2.75-2.32c.79,.51,1.99,1.68,2.62,2.68s1.42,3.02,1.73,4.49,.61,4.01,.66,5.64,.27,3.94,.51,5.13,1.18,3.12,2.09,4.27,2.45,2.82,3.4,3.69,2.81,2.18,4.12,2.9,3.16,1.92,4.12,2.68,2.2,2.06,2.76,2.9,1.14,2.46,1.3,3.61Z" style="fill: rgb(243, 199, 56);"/>
    <path d="M673.32,467.99c.06,2.8-.09,6.85-.33,9s-.8,5-1.25,6.35-1.09,3.14-1.43,3.98-1.19,2.97-1.9,4.72-2.65,4.68-4.32,6.5-4.31,3.87-5.86,4.55-4.24,1.39-5.97,1.57-4.85-.31-6.94-1.09-4.55-2.53-5.48-3.9-1.69-4.44-1.69-6.83,.14-4.75,.31-5.25,.18-.91,.02-.91-.63-.07-1.05-.16-.53-2.73-.26-5.88c0,0,1.27-14.93,1.36-22.9,.09-7.97-1.42-14.24-4.06-19.92-3.31-7.12-9.1-16.31-9.1-16.31-1.68-2.67-3.06-5.59-3.06-6.49s-.17-2.63-.37-3.86-.72-3.44-1.13-4.93-1.1-3.93-1.52-5.43-1.28-3.94-1.91-5.43-1.85-4.25-2.71-6.13-2.21-4.74-2.98-6.35-1.75-3.98-2.17-5.26-1.12-3.04-1.56-3.9-.62-1.74-.41-1.95,.59-1.1,.83-1.98,.39-2.21,.35-2.96,.1-1.8,.33-2.33,.31-1.62,.19-2.41-.56-1.96-.98-2.61-1.26-1.48-1.87-1.85-.86-1.02-.55-1.44,.89-1.32,1.28-2.01,.93-1.86,1.19-2.6,.62-3.09,.78-5.21,.2-4.87,.09-6.11-.47-3.27-.78-4.53-1.11-3.13-1.76-4.18-1.78-2.46-2.5-3.15-1.99-1.57-2.83-1.96-2.3-.82-3.26-.95-2.58,.04-3.61,.38-2.6,1.22-3.5,1.95-2.21,2.16-2.93,3.18-1.62,2.86-2.01,4.1-.73,3.36-.76,4.72,.02,2.8,.1,3.2,.45,1.24,.81,1.85,.79,1.47,.95,1.9,.35,1.07,.42,1.41,0,.56-.13,.46-1.43-.41-2.87-.71-3.39-.56-4.34-.59-2.96,.29-4.45,.7-2.96,.91-3.26,1.1-.2-.27,.22-1.03,1.07-1.77,1.46-2.26,.66-1.98,.6-3.31-.27-3.1-.48-3.93-.68-2.23-1.04-3.12-1.2-2.43-1.87-3.45-1.84-2.31-2.6-2.88-1.94-1.16-2.63-1.33-1.85-.26-2.58-.21-2,.67-2.82,1.38-1.86,2.11-2.31,3.12-.96,3.03-1.14,4.5-.26,4.41-.19,6.51,.29,4.82,.48,6.03,.72,3.14,1.16,4.29,1.19,2.57,1.66,3.17,1,1.23,1.19,1.41,.32,.35,.3,.38-.58,.6-1.23,1.26-1.58,1.76-2.06,2.44-1.04,2.2-1.25,3.37-.3,2.63-.21,3.26,.46,1.49,.83,1.93,1.55,.58,2.63,.33,1.51,1.22,.96,3.28-1.03,4.96-1.06,6.45-.2,3.49-.38,4.45-.59,2.37-.92,3.15-1.01,2.21-1.51,3.2-1.73,3.04-2.72,4.56-2.55,4.16-3.47,5.86-2.22,4.51-2.87,6.24-1.37,4.54-1.58,6.25-.3,4.14-.2,5.41-1.05,4.58-2.57,7.35l-13.82,49.03c-.47,3.12,.26,7.04,1.62,8.69s7.68,7.28,10.02,9.4l7.92,7.18c2.34,2.12,5.26,4.9,6.5,6.18s2.83,3.49,3.54,4.92,1.4,3.54,1.52,4.7-.04,2.88-.36,3.83-1.1,2.29-1.74,2.97-1.84,1.46-2.68,1.74-2.17,.51-2.97,.51-2.46-.07-3.01-.11-1.67-2.31-3.15-5.1l-4.61-8.67c-1.48-2.79-3.98-7.31-5.56-10.05l-1.94-3.36c-1.58-2.74-4.33-7.09-6.12-9.68s-4.3-5.52-5.57-6.51-3.16-1.97-4.19-2.17-2.73-.06-3.76,.3-2.47,1.34-3.19,2.17-1.73,.13-2.24-1.56-.84-4.83-.73-6.98,.85-5.66,1.62-7.81,2.55-6.22,3.94-9.06l.8-1.63c1.39-2.84,3.46-7.55,4.6-10.47s2.6-7.37,3.26-9.88,1.63-6.27,2.16-8.35,1.86-5.75,2.94-8.14,3.28-6.39,4.89-8.9,4.44-6.66,6.29-9.22l2.83-3.93c1.85-2.56,4.92-6.71,6.83-9.22s3.47-5.78,3.47-7.27-.11-5.29-.24-8.45l-1.03-24.34c-.13-3.16-.31-8.32-.39-11.48l-.14-5.23c-.08-3.16,.14-8.31,.5-11.45l.23-2.05c.36-3.14,1.66-8.08,2.9-10.99l.49-1.14c1.24-2.91,3.81-7.24,5.72-9.63s5.58-5.56,8.14-7.06,7.01-3.11,9.88-3.58,7.35-.72,9.98-.54,6.53,.91,8.68,1.63,5.38,2.18,7.17,3.26,4.77,3.17,6.62,4.66,4.44,4.27,5.75,6.18,3.27,5.09,4.34,7.06,2.54,5.44,3.26,7.71,1.69,6.17,2.17,8.68,.94,7.14,1.02,10.3l.12,4.57c.09,3.16,.32,8.32,.51,11.47l.59,9.58c.19,3.15,.74,6.61,1.22,7.69s1.79,3.72,2.93,5.86,2.84,6.15,3.8,8.89,2.81,7.09,4.12,9.66,3.65,6.33,5.21,8.36,4.38,5.76,6.27,8.29l.26,.35c1.89,2.53,4.52,6.31,5.83,8.4s3.17,5.76,4.13,8.14,2.49,6.81,3.41,9.84l2.07,6.81c.92,3.02,2.11,8.04,2.64,11.15l.66,3.87c.53,3.11,1.02,7.95,1.08,10.76Z"/>
    <path class="f" d="M634.41,420.46c18.06,8.54,23.36,32.04,16.77,49.75-.92,2.57-2.12,5.06-3.7,7.28l-.2-.11c1.98-4.99,3.07-10.2,3.73-15.42,2.41-16.22-1.59-32.71-16.71-41.28l.11-.2h0Z" style="fill: rgb(255, 255, 255);"/>
    <path class="f" d="M533.33,486.2c-12.08-13.26-8.41-33.3-2.4-48.52,2.11-5.24,4.73-10.24,7.49-15.13l.15,.08c-2.56,5-4.96,10.08-6.84,15.35-3.8,10.41-5.81,21.71-4.06,32.7,.71,5.47,2.75,10.69,5.79,15.41l-.13,.11h0Z" style="fill: rgb(255, 255, 255);"/>
    <path class="f" d="M574.78,342.56c.06,1.33-.21,2.82-.6,3.31s-1.04,1.51-1.46,2.26-1.64,1.93-2.71,2.61-2.69,1.84-3.58,2.59-2.27,2.18-3.05,3.19-1.58,1.69-1.76,1.51-.72-.81-1.19-1.41-1.21-2.02-1.66-3.17-.97-3.08-1.16-4.29-.41-3.92-.48-6.03,.01-5.03,.19-6.51,.69-3.5,1.14-4.5,1.49-2.4,2.31-3.12,2.09-1.33,2.82-1.38,1.89,.05,2.58,.21,1.87,.76,2.63,1.33,1.93,1.86,2.6,2.88,1.51,2.57,1.87,3.45,.83,2.28,1.04,3.12,.43,2.6,.48,3.93Z" style="fill: rgb(255, 255, 255);"/>
    <path class="f" d="M609.18,340.28c.12,1.24,.08,3.98-.09,6.11s-.51,4.46-.78,5.21-.8,1.91-1.19,2.6-.97,1.59-1.28,2.01-.66,.7-.78,.62-.64-.29-1.16-.48-1.31-.45-1.74-.57-1.72-.44-2.85-.7-2.7-.75-3.47-1.09-2.27-1.16-3.31-1.85-2.56-1.71-3.37-2.27-1.53-1.31-1.6-1.66-.26-.98-.42-1.41-.59-1.28-.95-1.9-.73-1.45-.81-1.85-.13-1.84-.1-3.2,.37-3.48,.76-4.72,1.29-3.08,2.01-4.1,2.03-2.45,2.93-3.18,2.47-1.61,3.5-1.95,2.65-.52,3.61-.38,2.42,.56,3.26,.95,2.11,1.27,2.83,1.96,1.84,2.1,2.5,3.15,1.45,2.92,1.76,4.18,.66,3.29,.78,4.53Z" style="fill: rgb(255, 255, 255);"/>
    <path class="o" d="M609.05,364.51c-.22,.54-.37,1.59-.33,2.33s-.12,2.08-.35,2.96-.61,1.77-.83,1.98-.6,.58-.84,.81-.95,.71-1.56,1.05-1.98,1-3.04,1.47-3.07,1.81-4.47,2.98-3.65,2.92-5,3.86-3.42,2.25-4.61,2.89-3.19,1.41-4.43,1.7-3.44,.56-4.88,.59-3.45-.25-4.47-.62-2.66-1.3-3.65-2.08-2.42-2.22-3.15-3.22-1.89-2.71-2.55-3.82-1.74-2.54-2.38-3.2-1.37-1.31-1.61-1.45-.84-.49-1.34-.78-1.2-.88-1.57-1.31-.74-1.3-.83-1.93,0-2.09,.21-3.26,.77-2.68,1.25-3.37,1.41-1.79,2.06-2.44,1.21-1.22,1.23-1.26,.69-.89,1.47-1.9,2.16-2.45,3.05-3.19,2.51-1.91,3.58-2.59,2.19-1.39,2.49-1.58,1.76-.68,3.26-1.1,3.5-.73,4.45-.7,2.91,.3,4.34,.59,2.72,.62,2.87,.71,.92,.63,1.73,1.19,2.33,1.58,3.37,2.27,2.53,1.52,3.31,1.85,2.34,.82,3.47,1.09,2.42,.58,2.85,.7,1.22,.38,1.74,.57,1.05,.41,1.16,.48,.71,.44,1.33,.81,1.46,1.21,1.87,1.85,.86,1.82,.98,2.61,.04,1.88-.19,2.41Z" style="fill: rgb(243, 199, 56);"/>
    <path d="M574.6,378.64c-.82,0-1.63-.02-2.26-.07-1.4-.11-3.58-.55-4.85-.97-1.35-.45-3.02-1.38-3.81-2.12-.68-.64-1.63-1.34-2.05-1.58-.46-.26-1.35-.6-1.9-.72l-1.16-.27c-.54-.12-.87-.66-.75-1.2,.12-.54,.66-.87,1.2-.75l1.16,.27c.73,.17,1.79,.57,2.42,.92,.62,.35,1.69,1.16,2.44,1.86,.58,.54,2.02,1.33,3.08,1.68,1.13,.38,3.13,.78,4.37,.87,1.26,.1,3.4,.09,4.66-.03,1.25-.11,3.9-.69,5.79-1.26,1.89-.57,4.8-1.75,6.37-2.56,1.54-.81,3.57-2.13,4.44-2.9,.96-.85,2.76-2.39,4.01-3.44,1.27-1.06,2.84-2.36,3.48-2.88l1.17-.95c.43-.35,1.06-.28,1.41,.14,.35,.43,.28,1.06-.14,1.41l-1.17,.95c-.64,.52-2.2,1.81-3.46,2.87-1.24,1.04-3.02,2.56-3.97,3.4-.98,.87-3.15,2.29-4.84,3.18-1.68,.88-4.69,2.09-6.71,2.7-2.03,.62-4.81,1.22-6.2,1.34-.75,.07-1.76,.1-2.74,.1Z"/>
    <path class="f" d="M638.67,486.65c.79-4.42,4.18-8.68,8.68-9.77,4.36-1.07,9.55-.29,13.23,2.1-1.91,.36-4.69-.04-6.66-.05-2.57-.13-5.17-.71-7.7,.05-2.8,1.18-5.46,3.37-6.68,6.24l-.66,1.51c-.05,.13-.26,.06-.22-.08h0Z" style="fill: rgb(255, 255, 255);"/>
    <circle cx="565.94" cy="347.47" r="4.51"/>
    <circle cx="595.41" cy="347.47" r="4.51"/>
    <path class="o" d="M561.65,545.57c.55,2.15,.81,5.63,.58,7.75s-.49,3.96-.55,4.1-.13,.26-.13,.26-.79,1.52-1.76,3.37-2.95,4.36-4.43,5.59-4.11,2.73-5.86,3.33-4.49,.92-6.07,.73-4.26-.95-5.93-1.66-4.31-1.99-5.86-2.83-4.93-2.17-7.52-2.97-6.69-1.9-9.12-2.46-5.82-1.4-7.53-1.88-5.56-1.67-8.57-2.65l-5.87-1.92c-3-.98-6.04-1.89-6.76-2.01s-1.95-.64-2.75-1.16-1.8-1.78-2.24-2.82-.8-2.73-.8-3.76,.29-2.6,.65-3.47,1.04-2.41,1.52-3.4,1.33-2.69,1.88-3.76,1.14-3.22,1.3-4.77,.29-4.41,.29-6.36-.19-5.14-.43-7.09-.59-4.82-.79-6.37-.26-3.61-.15-4.56,.54-2.45,.94-3.33,1.25-2.05,1.88-2.61,1.97-1.21,2.97-1.44,2.92-.46,4.27-.51,3.53-.14,4.85-.22,3.17-.47,4.12-.87,2.25-1.31,2.89-2.02,1.48-1.98,1.88-2.82,1.21-2.6,1.81-3.91,1.67-3.07,2.39-3.9,2.15-1.81,3.19-2.17,2.73-.49,3.76-.3,2.92,1.17,4.19,2.17,3.78,3.93,5.57,6.51,4.55,6.94,6.12,9.68l1.94,3.36c1.58,2.74,4.08,7.26,5.56,10.05l4.61,8.67c1.48,2.79,4.06,6.76,5.73,8.83s3.42,4.48,3.88,5.36,.84,1.6,.84,1.61,.58,1.08,1.26,2.38,1.7,4.13,2.26,6.28Z" style="fill: rgb(243, 199, 56);"/>
  </g>
  <g/>
</svg>